<?xml version="1.0" encoding="UTF-8"?>
<svg width="110" height="110" xmlns="http://www.w3.org/2000/svg" xmlns:svg="http://www.w3.org/2000/svg">
 <metadata id="metadata8">image/svg+xml</metadata>

 <g>
  <title>Layer 1</title>
  <g id="g4202">
   <path fill="#007348" fill-opacity="0.986046" fill-rule="evenodd" stroke-width="1.295236px" d="m1.575867,0.401946l99.912422,-0.106186l-0.406532,41.033624c-4.691109,32.815712 -34.654213,69.608757 -98.780797,67.814247l-0.725093,-108.741685z" id="path4149"/>
   <text font-style="normal" font-weight="normal" font-size="36.439747px" font-family="'Segoe UI Symbol'" text-anchor="start" fill="#000000" stroke-width="1px" xml:space="preserve" x="7.985448" y="173.38568" id="text4151"/>
   <path fill="#ffffff" d="m1,0c2.560372,0.004795 5.120744,0 7.676321,0m0,0c0.023973,10.999051 0.00959,21.993305 0.00959,32.98756c0.033563,1.352108 -0.148636,2.737774 0.15343,4.070705c0.57057,1.203468 2.01857,0.925377 3.106968,0.978119c4.636477,-0.043152 9.268163,0.004799 13.904641,-0.014381c4.123446,-0.033562 8.237299,-3.073406 8.932535,-7.240004c0.230145,-2.306252 0.043148,-4.626888 0.100685,-6.93314c-0.052738,-2.272692 0.311657,-4.68922 -0.747971,-6.798891c-1.481567,-3.135736 -4.866627,-5.096769 -8.290045,-5.211843c-3.984398,-0.0911 -7.973593,-0.0048 -11.95799,-0.038361c0.019179,-3.931656 0.02397,-7.868109 0,-11.799766" id="path6"/>
   <path fill="#ffffff" d="m46.022266,11.929223c4.928955,-0.297271 9.886677,-0.02397 14.825222,-0.143841c1.121964,-0.01918 2.713806,-0.100689 3.154915,1.213059c0.043152,1.251418 0.474678,2.91518 -0.733585,3.768637c-0.604134,0.316452 -1.318546,0.201378 -1.970627,0.24453c-4.626888,-0.02397 -9.253777,-0.0096 -13.880665,-0.01438c-2.01857,-0.0863 -4.224133,1.323338 -4.401539,3.456982c-0.091099,2.248716 0.023972,4.507021 -0.033558,6.755737c0.033558,1.189087 -0.182201,2.474068 0.426727,3.562466c0.676052,1.270597 2.114464,2.028158 3.53849,2.052134c5.250202,0.076717 10.509991,-0.0863 15.760193,0.067131c1.606224,0.3596 1.419235,2.167206 1.356903,3.428211c0.081512,0.958942 -0.858253,1.812397 -1.802811,1.692532c-5.101566,0.023968 -10.207924,0.004799 -15.30949,0.009598c-4.483047,0.009602 -9.047607,-3.706303 -9.038017,-8.376345c-0.004799,-3.207657 -0.043148,-6.415316 0.009602,-9.622972c0.139046,-4.257696 3.993988,-7.681114 8.098251,-8.093459l-0.000011,-0.000019z" id="path8"/>
   <path fill="#ffffff" d="m71.53009,12.044296c5.993378,-0.541801 12.049095,-0.081511 18.066444,-0.254119c1.23703,0.0096 3.06382,-0.249326 3.600822,1.20347c0.172607,1.347311 0.474678,3.485749 -1.217857,3.960425c-6.209137,0.139046 -12.427872,-0.047951 -18.637009,0.0863c-0.982918,-0.0096 -1.385674,1.179497 -1.28978,1.999392c-0.033562,1.102781 -0.186989,2.747364 1.270599,2.987099c4.952927,0.115074 9.915443,-0.0096 14.873169,0.05274c1.922676,0.014381 3.965218,0.805511 4.976906,2.522015c1.150726,1.95624 0.896606,4.296055 0.925377,6.463261c0.043152,1.745272 -0.210968,3.615206 -1.352112,5.005671c-1.21785,1.476768 -3.24601,1.970623 -5.082382,1.951447c-6.223526,-0.014381 -12.442253,0.028767 -18.660988,-0.01918c-1.611023,-0.004803 -1.77404,-1.927471 -1.615814,-3.140533c-0.210968,-1.184288 0.97332,-2.119259 2.085693,-2.023365c6.060509,-0.038361 12.1306,0.047951 18.191109,-0.033558c1.107574,-0.043152 1.380875,-1.294571 1.2658,-2.195974c-0.057541,-1.184292 0.388374,-3.078201 -1.22744,-3.399446c-4.952934,-0.139046 -9.91066,0.033562 -14.863586,-0.067129c-1.956238,0.0096 -4.075493,-0.781536 -5.072792,-2.560371c-1.222656,-2.267895 -0.848663,-4.948135 -0.81031,-7.417406c0.143845,-2.50763 2.013779,-4.823472 4.57415,-5.120745l0,0.00001z" id="path10"/>
   <path fill="#007348" fill-opacity="0.984314" d="m13.801859,17.021198c3.854942,-0.04315 7.714678,-0.02397 11.56962,-0.01918c2.013777,-0.091101 4.310438,1.308954 4.391949,3.48575c0.038361,2.886412 0.01438,5.772823 0.0096,8.664028c0.04315,2.042545 -1.927471,3.663157 -3.888504,3.667948c-3.998783,0.047951 -7.992771,0 -11.991554,0.01918c-0.03356,-5.274172 0.124662,-10.548346 -0.0911,-15.817726l-0.00001,0z" id="path12"/>
  </g>
 </g>
</svg>