<?xml version="1.0" encoding="UTF-8"?>
<svg width="289" height="289" xmlns="http://www.w3.org/2000/svg" xmlns:svg="http://www.w3.org/2000/svg" preserveAspectRatio="xMidYMid">

 <g>
  <title>Layer 1</title>
  <g id="svg_1">
   <path id="svg_2" fill="#539E43" d="m144,288.463776c-3.975159,0 -7.685303,-1.060059 -11.130432,-2.915131l-35.246376,-20.935822c-5.300209,-2.9151 -2.650108,-3.975128 -1.060043,-4.505157c7.155281,-2.385101 8.480331,-2.915131 15.90062,-7.155289c0.795029,-0.530014 1.855072,-0.264999 2.650101,0.265015l27.031059,16.165634c1.060043,0.530029 2.385086,0.530029 3.18013,0l105.73912,-61.217392c1.060043,-0.530029 1.590073,-1.590057 1.590073,-2.915115l0,-122.169769c0,-1.325058 -0.530029,-2.385094 -1.590073,-2.915115l-105.73912,-60.952383c-1.060043,-0.53002 -2.385101,-0.53002 -3.18013,0l-105.739132,60.952383c-1.06004,0.530022 -1.590061,1.855072 -1.590061,2.915115l0,122.169769c0,1.060043 0.530022,2.385086 1.590061,2.915115l28.886127,16.695648c15.635612,7.950317 25.440994,-1.325043 25.440994,-10.600418l0,-120.579704c0,-1.590065 1.32505,-3.180122 3.180122,-3.180122l13.515533,0c1.590057,0 3.180122,1.32505 3.180122,3.180122l0,120.579704c0,20.935822 -11.395447,33.126297 -31.271217,33.126297c-6.095245,0 -10.865433,0 -24.380959,-6.625259l-27.826084,-15.90062c-6.89027,-3.975159 -11.130436,-11.395447 -11.130436,-19.345749l0,-122.169777c0,-7.95031 4.240166,-15.370598 11.130436,-19.345757l105.739132,-61.217392c6.625259,-3.710144 15.635605,-3.710144 22.260864,0l105.739136,61.217392c6.890259,3.975159 11.130432,11.395447 11.130432,19.345757l0,122.169777c0,7.950302 -4.240173,15.37059 -11.130432,19.345749l-105.739136,61.217392c-3.445129,1.590057 -7.420288,2.385101 -11.130432,2.385101l0,0zm32.596268,-84.008286c-46.376816,0 -55.917175,-21.200836 -55.917175,-39.221542c0,-1.590057 1.32505,-3.180115 3.180122,-3.180115l13.78054,0c1.590057,0 2.915115,1.060043 2.915115,2.650101c2.120087,14.045547 8.215317,20.935822 36.306412,20.935822c22.260864,0 31.801239,-5.035202 31.801239,-16.960663c0,-6.890274 -2.650101,-11.925461 -37.366455,-15.370605c-28.886124,-2.915115 -46.90683,-9.27536 -46.90683,-32.331261c0,-21.465836 18.020706,-34.186333 48.231888,-34.186333c33.921326,0 50.616974,11.660454 52.737061,37.101448c0,0.795029 -0.265015,1.590065 -0.795044,2.385094c-0.530014,0.530022 -1.325043,1.060036 -2.120071,1.060036l-13.780548,0c-1.325043,0 -2.650101,-1.060036 -2.915115,-2.385086c-3.180115,-14.575569 -11.395447,-19.345757 -33.126282,-19.345757c-24.380966,0 -27.296066,8.480331 -27.296066,14.840576c0,7.685303 3.445129,10.070389 36.306412,14.310562c32.596268,4.240158 47.966873,10.335403 47.966873,33.126297c-0.265015,23.320908 -19.345749,36.571426 -53.002075,36.571426l0,0z"/>
  </g>
 </g>
</svg>