<?xml version="1.0" encoding="UTF-8"?>
<svg width="414.56781" height="414.56781" xmlns="http://www.w3.org/2000/svg" xmlns:svg="http://www.w3.org/2000/svg">
 <defs>
  <filter id="filter4243" color-interpolation-filters="sRGB">
   <feGaussianBlur id="feGaussianBlur4245" stdDeviation="19.837057"/>
  </filter>
 </defs>
 <metadata id="metadata4051">image/svg+xml</metadata>
 <g>
  <title>Layer 1</title>
  <g id="layer1">
   <g opacity="0.5" fill="#000000" display="inline" filter="url(#filter4243)" transform="matrix(0.351425, 0, 0, -0.351425, 184.632, 726.222)" id="g3390">
    <path fill="#000000" fill-rule="nonzero" id="path3392" d="m73.880493,1984.990845c9.588989,-1.719971 20.741997,-3.040039 19.159996,-5.330078c10.491997,2.300049 12.882988,4.419922 -19.159996,5.330078"/>
    <path fill="#000000" fill-rule="nonzero" id="path3394" d="m93.040489,1979.660767l-6.769981,-1.399902l6.312981,0.560059l0.457001,0.839844"/>
    <path fill="#000000" fill-rule="nonzero" id="path3396" d="m392.091156,1530.4198c1.070007,-29.059082 -8.489014,-43.161011 -17.129028,-68.11792l-15.531982,-7.761108c-12.698883,-24.680054 1.242981,-15.680054 -7.870911,-35.30896c-19.839935,-17.640991 -27.374847,-44.616333 -40.28476,-48.05835c-9.449005,0.21106 -24.770447,-25.742554 -22.700439,-21.465576c-26.56189,-18.238037 0.932556,-12.119141 -39.688309,-23.19812l-19.617813,-12.61792c-100.191254,-47.132935 -232.358572,22.745972 -230.526567,150.182983c-1.069981,-8.090088 -3.043005,-6.070068 -5.26099,-9.340088c-5.168005,65.571045 30.281025,131.429932 90.070028,158.321045c58.487961,28.948975 127.039139,17.069946 168.941177,-21.968994c-23.011002,30.139893 -81.40007,90.862305 -135.67717,87.869385c-53.171955,-0.838989 -133.481689,-41.821045 -150.082691,-78.501099c-27.237965,-17.149048 -35.793766,-93.084106 -47.664738,-102.044067c-15.979965,-117.37207 53.409508,-187.852173 131.248543,-247.500122c12.23901,-8.262085 3.437988,-9.512085 5.097992,-15.801025c-25.858992,12.109009 -56.732118,44.777222 -76.201126,67.15625c10.328007,-15.109985 28.674121,-44.207275 43.084105,-55.746216c-24.383014,8.261963 -64.146093,59.078003 -73.65407,61.148926c42.026974,-75.257935 177.701046,-131.968994 245.002186,-103.828979c-31.141068,-1.147949 -70.68811,-0.640015 -105.668098,12.290039c-14.704002,7.549927 -34.68,23.218018 -31.101997,26.151978c91.809006,-34.301025 226.343246,9.457886 305.779831,73.145874c20.222961,15.741943 53.090637,65.896606 59.469666,66.268555c-9.609009,-14.449951 -18.140076,0.243164 -25.519043,-12.506836c20.128967,32.480957 2.039612,-8.360352 31.597656,34.51062l5.527161,2.943848c-4.062012,26.968994 44.278625,57.912598 40.457642,100.549683c8.621033,13.042969 9.610046,-14.027954 0.473022,-44.027954c12.679993,33.277954 3.348022,38.628906 6.598022,66.089966c3.518982,-9.230103 8.151978,-19.043091 10.518982,-28.781006c-8.268982,32.160034 8.460999,54.160034 12.609009,72.851929c-4.088989,1.808105 -12.75,-14.2229 -14.718018,23.769043c0.281006,16.5 4.590027,8.648926 6.242004,12.710938c-3.242004,1.859131 -11.742004,14.508057 -16.910034,38.77002c3.738037,5.698975 10.019043,-14.781982 15.109009,-15.621948c-3.268982,19.289917 -8.921997,34 -9.159973,48.800903c-14.901978,31.141113 -5.27002,-4.151855 -17.359009,13.367065c-15.85199,49.473022 13.159973,11.481079 15.117004,33.96106c24.051025,-34.828125 37.750092,-88.808105 44.051178,-111.167969c-4.809082,27.257935 -12.559143,53.667969 -22.051178,79.218994c7.320038,-3.070068 -11.75,56.089966 9.511017,16.909912c-22.709991,83.52002 -131.315277,175.945313 -199.815033,212.566162c8.366974,-7.669922 18.956879,-17.299927 15.155945,-18.809937c-34.057861,20.280029 -28.07785,21.859985 -32.956879,30.430054c-27.741852,11.290039 -29.561829,-0.909912 -47.94075,-0.02002c-52.301117,27.73999 -62.37915,24.790039 -110.508209,42.169922l2.187988,-10.22998c-34.648987,11.540039 -40.378998,-4.379883 -77.820988,-0.040039c-2.276974,1.780029 11.991993,6.440186 23.749989,8.150146c-33.499985,-4.420166 -31.92897,6.599854 -64.710999,-1.219971c8.082003,5.669922 16.621014,9.419922 25.24202,14.23999c-27.319996,-1.660156 -65.218031,-15.900146 -53.519018,-2.950195c-44.562986,-19.879883 -123.698786,-47.789795 -168.108881,-89.430908l-1.403015,9.331055c-20.347107,-24.428955 -88.738449,-72.959961 -94.187454,-104.600098l-5.441986,-1.27002c-10.590027,-17.929932 -17.44104,-38.25 -25.839539,-56.698975c-13.851593,-23.602051 -20.300812,-9.082031 -18.332092,-12.781006c-27.23822,-55.230957 -40.769501,-101.640869 -52.457001,-139.699951c8.328094,-12.448975 0.199188,-74.948975 3.347687,-124.968018c-13.679688,-247.051025 173.38324,-486.910583 377.852252,-542.281677c29.968045,-10.718689 74.531018,-10.308594 112.440961,-11.410156c-44.72998,12.80072 3.436279,28.360535 -40.121674,43.559753c-31.429977,14.800842 -68.891704,19.111267 -91.152737,38.419861l8.808024,-15.558594c-43.655993,15.441406 -16.394636,20.919373 -51.914587,32.169373l0.414612,10.478882c-14.147987,1.081909 -37.475929,22.053711 -43.85891,34.674683l-15.480942,-0.609009c-18.59697,22.948975 -28.506958,39.488037 -27.788956,52.307983l-5,-8.910034c-5.667999,9.730103 -72.025925,78.876953 -39.467728,61.10791c-6.047028,5.531006 -14.090073,9 -22.808136,24.847046l6.629059,7.570923c-15.668091,20.160034 -28.840179,46 -27.840179,54.613037c8.363083,-11.292969 14.16011,-13.401978 19.902145,-15.332031c-39.570221,98.180054 -0.57251,5.410034 -30.545273,99.94104l6.339828,0.508057c-4.859406,7.320923 -7.80864,15.269897 -11.71875,23.070923l2.757828,27.5c-28.468903,32.890015 -7.949265,79.013428 -3.839935,137.763428c2.851578,23.891113 23.781723,49.321045 39.703796,89.198975l-9.704056,1.668091c18.543121,32.343994 44.866684,129.882935 85.303802,124.864014c19.589943,24.609009 -3.889984,0.089966 -7.718994,6.28894c43.031921,44.531006 56.558861,31.46106 85.601803,39.468994c31.315968,18.589111 -26.882946,-7.25 -12.030994,7.089111c54.139965,13.831909 38.370951,31.441895 108.999992,38.460938c7.449005,-4.238037 -17.289013,-6.550049 -23.500019,-12.050049c45.109028,22.070068 142.750019,17.050049 206.160221,-12.25c73.597809,-34.390869 156.268433,-75.053467 159.526428,-170.702393l3.723022,-1c-1.871033,-38.019043 5.820007,-81.988037 -7.52002,-122.378906l9.078979,19.11792"/>
    <path fill="#000000" fill-rule="nonzero" id="path3398" d="m-54.108475,1401.34082l-2.519016,-12.601074c11.807999,-16.026978 21.178993,-33.409912 36.257982,-45.948975c-10.848015,21.171997 -18.91099,29.921997 -33.738966,58.550049"/>
    <path fill="#000000" fill-rule="nonzero" id="path3400" d="m-26.190519,1402.430786c-6.249987,6.917969 -9.948992,15.239014 -14.089972,23.52002c3.960987,-14.570068 12.070988,-27.090088 19.621983,-39.820068l-5.532011,16.300049"/>
    <path fill="#000000" fill-rule="nonzero" id="path3402" d="m467.852142,1509.821777l-2.632996,-6.620972c-4.838989,-34.379028 -15.289001,-68.399048 -31.307983,-99.942017c17.690979,33.281982 29.128967,69.68396 33.940979,106.562988"/>
    <path fill="#000000" fill-rule="nonzero" id="path3404" d="m77.4505,1993.610718c12.152,4.449951 29.858986,2.439941 42.75,5.370117c-16.797012,-1.410156 -33.507996,-2.25 -50.038994,-4.380127l7.288994,-0.98999"/>
   </g>
   <g fill="#c70338" display="inline" id="g3374" transform="matrix(0.351425, 0, 0, -0.351425, 173.961, 711.549)">
    <path fill="#c70338" fill-rule="nonzero" d="m73.880493,1984.990845c9.588989,-1.719971 20.741997,-3.040039 19.159996,-5.330078c10.491997,2.300049 12.882988,4.419922 -19.159996,5.330078" id="path3376"/>
    <path fill="#c70338" fill-rule="nonzero" d="m93.040489,1979.660767l-6.769981,-1.399902l6.312981,0.560059l0.457001,0.839844" id="path3378"/>
    <path fill="#c70338" fill-rule="nonzero" d="m392.091156,1530.4198c1.070007,-29.059082 -8.489014,-43.161011 -17.129028,-68.11792l-15.531982,-7.761108c-12.698883,-24.680054 1.242981,-15.680054 -7.870911,-35.30896c-19.839935,-17.640991 -27.374847,-44.616333 -40.28476,-48.05835c-9.449005,0.21106 -24.770447,-25.742554 -22.700439,-21.465576c-26.56189,-18.238037 0.932556,-12.119141 -39.688309,-23.19812l-19.617813,-12.61792c-100.191254,-47.132935 -232.358572,22.745972 -230.526567,150.182983c-1.069981,-8.090088 -3.043005,-6.070068 -5.26099,-9.340088c-5.168005,65.571045 30.281025,131.429932 90.070028,158.321045c58.487961,28.948975 127.039139,17.069946 168.941177,-21.968994c-23.011002,30.139893 -81.40007,90.862305 -135.67717,87.869385c-53.171955,-0.838989 -133.481689,-41.821045 -150.082691,-78.501099c-27.237965,-17.149048 -35.793766,-93.084106 -47.664738,-102.044067c-15.979965,-117.37207 53.409508,-187.852173 131.248543,-247.500122c12.23901,-8.262085 3.437988,-9.512085 5.097992,-15.801025c-25.858992,12.109009 -56.732118,44.777222 -76.201126,67.15625c10.328007,-15.109985 28.674121,-44.207275 43.084105,-55.746216c-24.383014,8.261963 -64.146093,59.078003 -73.65407,61.148926c42.026974,-75.257935 177.701046,-131.968994 245.002186,-103.828979c-31.141068,-1.147949 -70.68811,-0.640015 -105.668098,12.290039c-14.704002,7.549927 -34.68,23.218018 -31.101997,26.151978c91.809006,-34.301025 226.343246,9.457886 305.779831,73.145874c20.222961,15.741943 53.090637,65.896606 59.469666,66.268555c-9.609009,-14.449951 -18.140076,0.243164 -25.519043,-12.506836c20.128967,32.480957 2.039612,-8.360352 31.597656,34.51062l5.527161,2.943848c-4.062012,26.968994 44.278625,57.912598 40.457642,100.549683c8.621033,13.042969 9.610046,-14.027954 0.473022,-44.027954c12.679993,33.277954 3.348022,38.628906 6.598022,66.089966c3.518982,-9.230103 8.151978,-19.043091 10.518982,-28.781006c-8.268982,32.160034 8.460999,54.160034 12.609009,72.851929c-4.088989,1.808105 -12.75,-14.2229 -14.718018,23.769043c0.281006,16.5 4.590027,8.648926 6.242004,12.710938c-3.242004,1.859131 -11.742004,14.508057 -16.910034,38.77002c3.738037,5.698975 10.019043,-14.781982 15.109009,-15.621948c-3.268982,19.289917 -8.921997,34 -9.159973,48.800903c-14.901978,31.141113 -5.27002,-4.151855 -17.359009,13.367065c-15.85199,49.473022 13.159973,11.481079 15.117004,33.96106c24.051025,-34.828125 37.750092,-88.808105 44.051178,-111.167969c-4.809082,27.257935 -12.559143,53.667969 -22.051178,79.218994c7.320038,-3.070068 -11.75,56.089966 9.511017,16.909912c-22.709991,83.52002 -131.315277,175.945313 -199.815033,212.566162c8.366974,-7.669922 18.956879,-17.299927 15.155945,-18.809937c-34.057861,20.280029 -28.07785,21.859985 -32.956879,30.430054c-27.741852,11.290039 -29.561829,-0.909912 -47.94075,-0.02002c-52.301117,27.73999 -62.37915,24.790039 -110.508209,42.169922l2.187988,-10.22998c-34.648987,11.540039 -40.378998,-4.379883 -77.820988,-0.040039c-2.276974,1.780029 11.991993,6.440186 23.749989,8.150146c-33.499985,-4.420166 -31.92897,6.599854 -64.710999,-1.219971c8.082003,5.669922 16.621014,9.419922 25.24202,14.23999c-27.319996,-1.660156 -65.218031,-15.900146 -53.519018,-2.950195c-44.562986,-19.879883 -123.698786,-47.789795 -168.108881,-89.430908l-1.403015,9.331055c-20.347107,-24.428955 -88.738449,-72.959961 -94.187454,-104.600098l-5.441986,-1.27002c-10.590027,-17.929932 -17.44104,-38.25 -25.839539,-56.698975c-13.851593,-23.602051 -20.300812,-9.082031 -18.332092,-12.781006c-27.23822,-55.230957 -40.769501,-101.640869 -52.457001,-139.699951c8.328094,-12.448975 0.199188,-74.948975 3.347687,-124.968018c-13.679688,-247.051025 173.38324,-486.910583 377.852252,-542.281677c29.968045,-10.718689 74.531018,-10.308594 112.440961,-11.410156c-44.72998,12.80072 3.436279,28.360535 -40.121674,43.559753c-31.429977,14.800842 -68.891704,19.111267 -91.152737,38.419861l8.808024,-15.558594c-43.655993,15.441406 -16.394636,20.919373 -51.914587,32.169373l0.414612,10.478882c-14.147987,1.081909 -37.475929,22.053711 -43.85891,34.674683l-15.480942,-0.609009c-18.59697,22.948975 -28.506958,39.488037 -27.788956,52.307983l-5,-8.910034c-5.667999,9.730103 -72.025925,78.876953 -39.467728,61.10791c-6.047028,5.531006 -14.090073,9 -22.808136,24.847046l6.629059,7.570923c-15.668091,20.160034 -28.840179,46 -27.840179,54.613037c8.363083,-11.292969 14.16011,-13.401978 19.902145,-15.332031c-39.570221,98.180054 -0.57251,5.410034 -30.545273,99.94104l6.339828,0.508057c-4.859406,7.320923 -7.80864,15.269897 -11.71875,23.070923l2.757828,27.5c-28.468903,32.890015 -7.949265,79.013428 -3.839935,137.763428c2.851578,23.891113 23.781723,49.321045 39.703796,89.198975l-9.704056,1.668091c18.543121,32.343994 44.866684,129.882935 85.303802,124.864014c19.589943,24.609009 -3.889984,0.089966 -7.718994,6.28894c43.031921,44.531006 56.558861,31.46106 85.601803,39.468994c31.315968,18.589111 -26.882946,-7.25 -12.030994,7.089111c54.139965,13.831909 38.370951,31.441895 108.999992,38.460938c7.449005,-4.238037 -17.289013,-6.550049 -23.500019,-12.050049c45.109028,22.070068 142.750019,17.050049 206.160221,-12.25c73.597809,-34.390869 156.268433,-75.053467 159.526428,-170.702393l3.723022,-1c-1.871033,-38.019043 5.820007,-81.988037 -7.52002,-122.378906l9.078979,19.11792" id="path3380"/>
    <path fill="#c70338" fill-rule="nonzero" d="m-54.108475,1401.34082l-2.519016,-12.601074c11.807999,-16.026978 21.178993,-33.409912 36.257982,-45.948975c-10.848015,21.171997 -18.91099,29.921997 -33.738966,58.550049" id="path3382"/>
    <path fill="#c70338" fill-rule="nonzero" d="m-26.190519,1402.430786c-6.249987,6.917969 -9.948992,15.239014 -14.089972,23.52002c3.960987,-14.570068 12.070988,-27.090088 19.621983,-39.820068l-5.532011,16.300049" id="path3384"/>
    <path fill="#c70338" fill-rule="nonzero" d="m467.852142,1509.821777l-2.632996,-6.620972c-4.838989,-34.379028 -15.289001,-68.399048 -31.307983,-99.942017c17.690979,33.281982 29.128967,69.68396 33.940979,106.562988" id="path3386"/>
    <path fill="#c70338" fill-rule="nonzero" d="m77.4505,1993.610718c12.152,4.449951 29.858986,2.439941 42.75,5.370117c-16.797012,-1.410156 -33.507996,-2.25 -50.038994,-4.380127l7.288994,-0.98999" id="path3388"/>
   </g>
  </g>
 </g>
</svg>