<?xml version="1.0" encoding="UTF-8"?>
<svg width="205" height="205" xmlns="http://www.w3.org/2000/svg" xmlns:svg="http://www.w3.org/2000/svg">
 <style type="text/css">.st0{fill:#DD0031;}
	.st1{fill:#C3002F;}
	.st2{fill:#FFFFFF;}</style>

 <g>
  <title>Layer 1</title>
  <g id="svg_1">
   <polygon id="svg_2" points="103,2 103,2 103,2 9.899999618530273,35.20000076293945 24.099998474121094,158.3000030517578 103,202 103,202 103,202 181.89999389648438,158.3000030517578 196.10000610351562,35.20000076293945 " class="st0"/>
   <polygon id="svg_3" points="103,2 103,24.200000762939453 103,24.099998474121094 103,125.39999389648438 103,125.39999389648438 103,202 103,202 181.89999389648438,158.3000030517578 196.10000610351562,35.20000076293945 103,2 " class="st1"/>
   <path id="svg_4" d="m103,24.099998l-58.199997,130.500008l0,0l21.699997,0l0,0l11.699997,-29.199997l49.400009,0l11.699997,29.199997l0,0l21.700012,0l0,0l-58.000015,-130.500008l0,0l0,0l0,0l0,0zm17,83.299995l-34,0l17,-40.900002l17,40.900002z" class="st2"/>
  </g>
 </g>
</svg>