<?xml version="1.0" encoding="UTF-8"?>
<svg width="230" height="230" xmlns="http://www.w3.org/2000/svg" xmlns:svg="http://www.w3.org/2000/svg" preserveAspectRatio="xMinYMin meet">
 <g>
  <title>Layer 1</title>
  <path id="svg_2" fill="#53C1DE" d="m188.024994,79.674004a151.363998,151.363998 0 0 0 -7.274002,-2.292a137.5,137.5 0 0 0 1.123993,-4.961014c5.506012,-26.728001 1.906006,-48.259991 -10.388,-55.348c-11.786987,-6.798 -31.064987,0.289999 -50.534988,17.232998a151.136002,151.136002 0 0 0 -5.626007,5.163002a137.572998,137.572998 0 0 0 -3.743996,-3.458c-20.405014,-18.118 -40.858009,-25.751999 -53.139,-18.643c-11.776005,6.816999 -15.264004,27.059999 -10.307003,52.389997a150.910004,150.910004 0 0 0 1.669998,7.483994c-2.893997,0.822006 -5.688999,1.698006 -8.362999,2.629997c-23.921999,8.340004 -39.200001,21.411995 -39.200001,34.970001c0,14.003983 16.39999,28.050003 41.318001,36.565994a128.440002,128.440002 0 0 0 6.110001,1.910004a147.813004,147.813004 0 0 0 -1.775002,8.067001c-4.725998,24.889999 -1.035,44.653 10.709999,51.427994c12.131004,6.99501 32.491005,-0.194992 52.317009,-17.524994c1.567001,-1.369995 3.140015,-2.822998 4.715004,-4.345993a148.339996,148.339996 0 0 0 6.108002,5.572998c19.203995,16.524994 38.169968,23.198013 49.904968,16.404999c12.120026,-7.016006 16.058014,-28.247009 10.944,-54.077988c-0.389984,-1.973022 -0.845001,-3.988022 -1.354996,-6.039993c1.429993,-0.422012 2.832993,-0.858002 4.202011,-1.312012c25.903976,-8.581985 42.756989,-22.457001 42.756989,-36.64798c0,-13.60701 -15.770004,-26.767014 -40.174011,-35.168007l0,-0.000015l0.000031,0.000015z"/>
  <path id="svg_3" fill="#FFF" d="m182.406006,143.328003c-1.235001,0.408997 -2.502991,0.804001 -3.794998,1.186996c-2.860001,-9.052994 -6.720001,-18.680008 -11.442001,-28.625c4.507004,-9.709999 8.21701,-19.212997 10.997009,-28.208c2.310989,0.669998 4.554977,1.375 6.71701,2.120003c20.909988,7.196999 33.664001,17.839996 33.664001,26.040009c0,8.734985 -13.775024,20.074997 -36.140015,27.485992l-0.001007,0zm-9.278992,18.388992c2.261002,11.422012 2.584,21.749008 1.085999,29.822006c-1.346008,7.253998 -4.051987,12.089996 -7.39801,14.026993c-7.120987,4.122009 -22.349976,-1.235992 -38.771988,-15.368011c-1.883011,-1.619995 -3.779999,-3.349976 -5.682022,-5.179977c6.367004,-6.964005 12.730011,-15.060013 18.940002,-24.049988c10.924011,-0.969025 21.244003,-2.554001 30.603012,-4.71701c0.460007,1.859985 0.87001,3.682999 1.223007,5.465988l0,-0.000015l0,0.000015zm-93.850014,43.137009c-6.957001,2.457001 -12.498001,2.526993 -15.847,0.595993c-7.127998,-4.110001 -10.090004,-19.97998 -6.049004,-41.264984a138.507004,138.507004 0 0 1 1.650002,-7.501999c9.255005,2.046997 19.5,3.519989 30.450005,4.40799c6.250999,8.797012 12.797997,16.882996 19.395996,23.963989a118.862999,118.862999 0 0 1 -4.305,3.964005c-8.766998,7.664001 -17.551987,13.099991 -25.293999,15.834991l-0.000999,0l0,0.000015zm-32.593002,-61.580002c-11.017998,-3.766006 -20.116997,-8.660004 -26.353996,-14c-5.604002,-4.800003 -8.434002,-9.565002 -8.434002,-13.431992c0,-8.22702 12.266998,-18.722008 32.726009,-25.855011a139.276001,139.276001 0 0 1 7.777,-2.446999c2.828003,9.196999 6.537003,18.812996 11.012993,28.536995c-4.533989,9.869003 -8.29599,19.638 -11.149994,28.943008a118.907997,118.907997 0 0 1 -5.577999,-1.746002l-0.000011,0zm10.926003,-74.370003c-4.247002,-21.702999 -1.427002,-38.073997 5.669998,-42.181999c7.560013,-4.375999 24.275002,1.863998 41.893013,17.507c1.125999,1 2.256996,2.047001 3.389999,3.130001c-6.564003,7.049004 -13.051003,15.073997 -19.248001,23.82c-10.626999,0.985001 -20.800003,2.567001 -30.152,4.685997a141.524994,141.524994 0 0 1 -1.553001,-6.961998l0,0.000999l-0.000008,0zm97.46701,24.067001a306.981995,306.981995 0 0 0 -6.871002,-11.300003c7.210007,0.910004 14.117004,2.120003 20.602997,3.601013c-1.946991,6.240997 -4.373993,12.766998 -7.231979,19.456985a336.420013,336.420013 0 0 0 -6.5,-11.757996l-0.000015,0zm-39.746994,-38.713997c4.451996,4.822998 8.910995,10.209 13.296997,16.051994a284.244995,284.244995 0 0 0 -26.705994,-0.005997c4.389999,-5.789001 8.886986,-11.167 13.408997,-16.045998zm-40.002007,38.779984a285.23999,285.23999 0 0 0 -6.377998,11.685013c-2.811005,-6.667 -5.216003,-13.222 -7.18,-19.552002c6.446999,-1.443001 13.321999,-2.622002 20.485001,-3.516998a283.790009,283.790009 0 0 0 -6.927002,11.384003l0,-0.000015zm7.133003,57.682999c-7.400002,-0.825989 -14.379013,-1.945007 -20.82402,-3.348007c1.994995,-6.442001 4.452995,-13.138 7.324005,-19.947998a283.493988,283.493988 0 0 0 6.405998,11.692001a285.269989,285.269989 0 0 0 7.094002,11.604004l0.000015,0zm33.136002,27.388992c-4.575005,-4.936996 -9.138016,-10.396988 -13.595016,-16.269989c4.326004,0.169998 8.737015,0.255997 13.220016,0.255997c4.605988,0 9.158997,-0.102997 13.639999,-0.302979c-4.400009,5.979996 -8.843002,11.447998 -13.264999,16.316986l0,-0.000015zm46.071991,-51.032013c3.019989,6.884003 5.56601,13.544006 7.587997,19.877029c-6.551987,1.49501 -13.625,2.699005 -21.077988,3.593002a337.536987,337.536987 0 0 0 6.936996,-11.498001a306.631989,306.631989 0 0 0 6.552994,-11.972l0,-0.000015l0,-0.000015zm-14.914993,7.150009a316.477997,316.477997 0 0 1 -10.839996,17.490005c-6.70401,0.478989 -13.632004,0.725998 -20.692001,0.725998c-7.031013,0 -13.871002,-0.219009 -20.458015,-0.645996a273.798004,273.798004 0 0 1 -11.044006,-17.516998a271.334015,271.334015 0 0 1 -9.640007,-18.206009a273.864014,273.864014 0 0 1 9.611,-18.215988l0,0.002007a271.252014,271.252014 0 0 1 10.956001,-17.442001c6.719994,-0.508003 13.610001,-0.774002 20.574997,-0.774002c6.996002,0 13.895004,0.268013 20.613022,0.780014a290.70401,290.70401 0 0 1 10.886978,17.382996a316.417999,316.417999 0 0 1 9.741013,18.129982a290.806,290.806 0 0 1 -9.709015,18.290024l0.000031,-0.000031zm19.912994,-107.791992c7.56601,4.363987 10.508987,21.961006 5.75499,45.037987a127.525002,127.525002 0 0 1 -1.016006,4.492004c-9.373993,-2.163002 -19.554001,-3.772995 -30.21199,-4.772995c-6.209,-8.840996 -12.641998,-16.879997 -19.100006,-23.838009a141.919998,141.919998 0 0 1 5.195999,-4.765999c16.682007,-14.518002 32.27298,-20.25 39.376999,-16.153l0.000015,0.000011z"/>
  <path id="svg_4" fill="#53C1DE" d="m115.220993,95.665001c11.143997,0 20.177002,9.033997 20.177002,20.17701c0,11.143982 -9.033005,20.177994 -20.177002,20.177994c-11.143013,0 -20.177002,-9.034012 -20.177002,-20.177994c0,-11.143021 9.033997,-20.17701 20.177002,-20.17701"/>
 </g>

</svg>