<svg id="locked" xmlns="http://www.w3.org/2000/svg" viewBox="0 0 60 60">
  <defs><style>.cls-1{fill:rgb(3.137255%,40.784314%,67.45098%);}</style></defs>
  <title>Atlas-Icons-v8 (Page 2)</title>
  <path class="cls-1" d="M43.61,59.08H16.47A1.12,1.12,0,0,1,15.35,58V3.44a1.12,1.12,0,0,1,1.12-1.12H43.61a1.12,1.12,0,0,1,1.12,1.12V58A1.12,1.12,0,0,1,43.61,59.08Zm-26-2.23H42.49V4.56H17.58V56.85Z"/><path class="cls-1" d="M37.17,23.89H23a1.12,1.12,0,0,1,0-2.23H37.17A1.12,1.12,0,1,1,37.17,23.89Z"/><path class="cls-1" d="M37.17,17.44H23a1.12,1.12,0,0,1,0-2.23H37.17A1.12,1.12,0,1,1,37.17,17.44Z"/><path class="cls-1" d="M37.17,11H23a1.12,1.12,0,0,1,0-2.23H37.17A1.12,1.12,0,1,1,37.17,11Z"/><g id="_Group_" data-name="&lt;Group&gt;"><path class="cls-1" d="M57.18,52.63H43.61a1.12,1.12,0,1,1,0-2.23H56.07V11H43.61a1.12,1.12,0,1,1,0-2.23H57.18A1.12,1.12,0,0,1,58.3,9.88V51.52A1.12,1.12,0,0,1,57.18,52.63Z"/><path class="cls-1" d="M50.74,30.33H43.61a1.12,1.12,0,1,1,0-2.23h7.13A1.12,1.12,0,1,1,50.74,30.33Z"/><path class="cls-1" d="M50.74,23.89H43.61a1.12,1.12,0,1,1,0-2.23h7.13A1.12,1.12,0,1,1,50.74,23.89Z"/><path class="cls-1" d="M50.74,17.44H43.61a1.12,1.12,0,1,1,0-2.23h7.13A1.12,1.12,0,1,1,50.74,17.44Z"/></g><g id="_Group_2" data-name="&lt;Group&gt;"><path class="cls-1" d="M16.39,52.63H2.82A1.12,1.12,0,0,1,1.7,51.52V9.88A1.12,1.12,0,0,1,2.82,8.77H16.39a1.12,1.12,0,1,1,0,2.23H3.93V50.4H16.39A1.12,1.12,0,1,1,16.39,52.63Z"/><path class="cls-1" d="M16.39,30.33H9.26a1.12,1.12,0,1,1,0-2.23h7.13A1.12,1.12,0,1,1,16.39,30.33Z"/><path class="cls-1" d="M16.39,23.89H9.26a1.12,1.12,0,0,1,0-2.23h7.13A1.12,1.12,0,1,1,16.39,23.89Z"/><path class="cls-1" d="M16.39,17.44H9.26a1.12,1.12,0,1,1,0-2.23h7.13A1.12,1.12,0,1,1,16.39,17.44Z"/></g>
</svg>
