<?xml version="1.0" encoding="UTF-8"?>
<svg width="300" height="300" xmlns="http://www.w3.org/2000/svg" xmlns:svg="http://www.w3.org/2000/svg" preserveAspectRatio="xMidYMid">

 <g>
  <title>Layer 1</title>
  <path id="svg_1" fill="#5294CF" d="m187.257996,294.501007l3.508011,0l57.260986,-28.634003l0.953003,-1.346985l0,-228.556019l-0.953003,-1.354l-57.260986,-28.610001l-3.550995,0l0.042999,288.501007"/>
  <path id="svg_2" fill="#1F5B98" d="m112.740997,294.501007l-3.556999,0l-57.211998,-28.634003l-1.160999,-1.997009l-0.589001,-226.741997l1.75,-2.517998l57.211998,-28.610001l3.601006,0l-0.044006,288.501007"/>
  <path id="svg_3" fill="#2D72B8" d="m109.285004,6l81.42601,0l0,288.501007l-81.42601,0l0,-288.501007z"/>
  <path id="svg_4" fill="#1A476F" d="m278,143.768997l-1.934998,-0.429001l-27.628006,-2.575989l-0.410004,0.203995l-57.311996,-2.292007l-81.429993,0l-57.313004,2.292007l0,-43.704002l-0.059998,0.031998l0.059998,-0.127998l57.313004,-13.279999l81.429993,0l57.311996,13.279999l21.069016,11.198997l0,-7.199997l8.903992,-0.973999l-0.921997,-1.798004l-28.192001,-20.158997l-0.859009,0.278999l-57.311996,-17.758999l-81.429993,0l-57.313004,17.758999l0,-43.904999l-29.972,35.112999l0,30.666l0.232,-0.167999l8.671999,0.945999l0,7.348l-8.903999,4.764999l0,30.513l0.232,-0.024002l8.671999,0.128006l0,12.806992l-7.481998,0.112l-1.422001,-0.136002l0,30.524994l8.903999,4.78801l0,7.432999l-8.530998,0.942001l-0.373001,-0.279999l0,30.660995l29.972,35.118011l0,-43.901016l57.313004,17.759003l81.429993,0l57.481003,-17.811005l0.764008,0.335007l27.820999,-19.862l1.218994,-1.979004l-8.903992,-0.981995l0,-7.284012l-1.166992,-0.465988l-19.043015,10.264999l-0.690002,1.440002l-57.481003,13.202988l0,0.016006l-81.429993,0l0,-0.016006l-57.313004,-13.258987l0,-43.864014l57.313004,2.284012l0,0.056l81.429993,0l57.311996,-2.340012l1.305008,0.600006l26.778992,-2.306l1.889008,-0.923004l-8.903992,-0.127991l0,-12.807007l8.903992,-0.127991"/>
  <path id="svg_5" fill="#2D72B8" d="m248.026993,221.966003l0,43.901001l29.973007,-35.118011l0,-30.460999l-29.800003,21.625992l-0.173004,0.052002m0,-18.544983l0.173004,-0.039993l29.800003,-16.028l0,-30.649002l-29.973007,2.757004l0,43.959991m0.173004,-106.213005l-0.173004,-0.040001l0,43.800003l29.973007,2.800995l0,-30.633995l-29.800003,-15.927002m0,-18.521004l29.800003,21.506004l0,-30.461998l-29.973007,-35.121002l0,43.904999l0.173004,0.059998l0,0.112"/>
 </g>
</svg>