<?xml version="1.0" encoding="UTF-8"?>
<!-- Generator: Adobe Illustrator 22.1.0, SVG Export Plug-In . SVG Version: 6.00 Build 0)  -->
<svg version="1.1" id="Capa_1" xmlns="http://www.w3.org/2000/svg" xmlns:xlink="http://www.w3.org/1999/xlink" x="0px" y="0px" viewBox="0 0 512 512" style="enable-background:new 0 0 512 512;" xml:space="preserve">
<style type="text/css">
	.st0{fill:rgb(32.54902%,75.686275%,87.058824%);}
</style>
<g>
	<g>
		<path class="st0" d="M386,112.5H126c-4.1,0-7.5,3.4-7.5,7.5v44c0,4.1,3.4,7.5,7.5,7.5h260c4.1,0,7.5-3.4,7.5-7.5v-44    C393.5,115.9,390.1,112.5,386,112.5z M378.5,156.5h-245v-29h245V156.5z"/>
	</g>
</g>
<g>
	<g>
		<path class="st0" d="M256,185.5H126c-4.1,0-7.5,3.4-7.5,7.5v86.9c0,4.1,3.4,7.5,7.5,7.5h130c4.1,0,7.5-3.4,7.5-7.5V193    C263.5,188.8,260.1,185.5,256,185.5z M248.5,272.3h-115v-71.9h115V272.3z"/>
	</g>
</g>
<g>
	<g>
		<path class="st0" d="M256,298.6H126c-4.1,0-7.5,3.4-7.5,7.5V393c0,4.1,3.4,7.5,7.5,7.5h130c4.1,0,7.5-3.4,7.5-7.5v-86.9    C263.5,302,260.1,298.6,256,298.6z M248.5,385.5h-115v-71.9h115V385.5z"/>
	</g>
</g>
<g>
	<g>
		<path class="st0" d="M386,185.5h-96c-4.1,0-7.5,3.4-7.5,7.5v200c0,4.1,3.4,7.5,7.5,7.5h96c4.1,0,7.5-3.4,7.5-7.5V193    C393.5,188.9,390.1,185.5,386,185.5z M378.5,385.5h-81v-185h81V385.5z"/>
	</g>
</g>
<g>
	<g>
		<path class="st0" d="M416,408.7c-4.1,0-7.5,3.4-7.5,7.5v20.5h-305V127.8c0-4.1-3.4-7.5-7.5-7.5s-7.5,3.4-7.5,7.5v356.4v0.3    c0,15.2,12.3,27.5,27.5,27.5h280c15.2,0,27.5-12.3,27.5-27.5v-0.3v-68C423.5,412,420.1,408.7,416,408.7z M408.5,484.2    c0,6.9-5.6,12.5-12.5,12.5H116c-6.9,0-12.5-5.6-12.5-12.5v-32.5h305V484.2z"/>
	</g>
</g>
<g>
	<g>
		<path class="st0" d="M279,30h-46c-4.1,0-7.5,3.4-7.5,7.5s3.4,7.5,7.5,7.5h46c4.1,0,7.5-3.4,7.5-7.5S283.1,30,279,30z"/>
	</g>
</g>
<g>
	<g>
		<circle class="st0" cx="206.6" cy="37.5" r="7.5"/>
	</g>
</g>
<g>
	<g>
		<path class="st0" d="M338,467H174c-4.1,0-7.5,3.4-7.5,7.5s3.4,7.5,7.5,7.5h164c4.1,0,7.5-3.4,7.5-7.5S342.1,467,338,467z"/>
	</g>
</g>
<g>
	<g>
		<path class="st0" d="M396,0H116c-15.2,0-27.5,12.3-27.5,27.5v68.3c0,4.1,3.4,7.5,7.5,7.5s7.5-3.4,7.5-7.5V75h249    c4.1,0,7.5-3.4,7.5-7.5s-3.4-7.5-7.5-7.5h-249V27.5c0-6.9,5.6-12.5,12.5-12.5h280c6.9,0,12.5,5.6,12.5,12.5V60h-24.3    c-4.1,0-7.5,3.4-7.5,7.5s3.4,7.5,7.5,7.5h24.3v308.7c0,4.1,3.4,7.5,7.5,7.5s7.5-3.4,7.5-7.5V27.5C423.5,12.3,411.2,0,396,0z"/>
	</g>
</g>
</svg>
