<?xml version="1.0" encoding="UTF-8" standalone="yes"?>
<svg xmlns="http://www.w3.org/2000/svg" xmlns:xlink="http://www.w3.org/1999/xlink" width="80px" height="80px" viewBox="0 0 60 60" version="1.1">
  <g id="surface1">
    <path style=" stroke:none;fill-rule:nonzero;fill:rgb(100%,40%,0%);fill-opacity:1;" d="M 56.617188 24.191406 L 35.863281 24.191406 L 35.863281 3.441406 C 35.863281 2.445312 35.058594 1.636719 34.058594 1.636719 L 25.941406 1.636719 C 24.941406 1.636719 24.136719 2.445312 24.136719 3.441406 L 24.136719 24.191406 L 13.308594 24.191406 L 13.308594 3.441406 C 13.308594 2.445312 12.5 1.636719 11.503906 1.636719 L 3.382812 1.636719 C 2.386719 1.636719 1.578125 2.445312 1.578125 3.441406 L 1.578125 56.671875 C 1.578125 57.667969 2.386719 58.476562 3.382812 58.476562 L 56.617188 58.476562 C 57.613281 58.476562 58.421875 57.667969 58.421875 56.671875 L 58.421875 25.996094 C 58.421875 25 57.613281 24.191406 56.617188 24.191406 Z M 46.898438 45.023438 C 46.898438 46.019531 46.09375 46.828125 45.09375 46.828125 L 37.667969 46.828125 C 36.671875 46.828125 35.863281 46.019531 35.863281 45.023438 L 35.863281 37.597656 C 35.863281 36.601562 36.671875 35.792969 37.667969 35.792969 L 45.09375 35.792969 C 46.09375 35.792969 46.898438 36.601562 46.898438 37.597656 Z M 46.898438 45.023438 "/>
  </g>
</svg>