<?xml version="1.0" encoding="UTF-8"?>
<svg width="350" height="350" xmlns="http://www.w3.org/2000/svg" xmlns:svg="http://www.w3.org/2000/svg">
 <title>Slice 1</title>Created with Sketch (http://www.bohemiancoding.com/sketch)

 <g>
  <title>Layer 1</title>
  <g fill-rule="evenodd" fill="none" id="Page 1">
   <g id="Layer_1">
    <path fill="#1572B6" id="Shape" d="m53.141998,310.290009l-27.070999,-303.62001l297.449997,0l-27.096008,303.570999l-121.810989,33.769989l-121.472,-33.720978zm0,0"/>
    <path fill="#33A9DC" id="Shape" d="m174.798004,318.199005l98.427002,-27.287994l23.156982,-259.415009l-121.583984,0l0,286.703003zm0,0"/>
    <g id="Group">
     <path fill="#FFFFFF" id="Shape" d="m174.796997,141.496002l49.275009,0l3.403,-38.132004l-52.678009,0l0,-37.238998l0.128998,0l93.246002,0l-0.893005,9.990997l-9.151978,102.615997l-83.330017,0l0,-37.235992zm0,0"/>
     <path fill="#EBEBEB" id="Shape" d="m175.019989,238.203979l-0.162994,0.046021l-41.472,-11.199005l-2.651993,-29.697998l-20.151001,0l-17.227997,0l5.215996,58.46701l76.277992,21.175995l0.171997,-0.048004l0,-38.744019zm0,0"/>
     <path fill="#FFFFFF" id="Shape" d="m220.906998,177.156006l-4.483994,49.869995l-41.532013,11.209991l0,38.742004l76.339005,-21.15799l0.559998,-6.290009l6.478012,-72.373993l-37.361008,0zm0,0"/>
     <path fill="#EBEBEB" id="Shape" d="m174.925995,66.125l0,23.128006l0,14.018997l0,0.091995l-89.827995,0l-0.118996,0l-0.747009,-8.369995l-1.696991,-18.878006l-0.889999,-9.990997l93.280991,0zm0,0"/>
     <path fill="#EBEBEB" id="Shape" d="m174.796997,141.5l0,23.128998l0,14.016998l0,0.09201l-40.828003,0l-0.118988,0l-0.746002,-8.369003l-1.697998,-18.878006l-0.890015,-9.990997l44.281006,0zm0,0"/>
    </g>
   </g>
  </g>
 </g></svg>