<?xml version="1.0" encoding="UTF-8" standalone="yes"?>
<svg xmlns="http://www.w3.org/2000/svg" xmlns:xlink="http://www.w3.org/1999/xlink" width="80px" height="80px" viewBox="0 0 60 60" version="1.1">
  <g id="surface1">
    <path style=" stroke:none;fill-rule:nonzero;fill:#FFFFFF;fill-opacity:1;" d="M 59.511719 31.292969 C 59.511719 26.34375 56.4375 21.992188 51.8125 20.316406 C 52.011719 19.269531 52.109375 18.21875 52.109375 17.144531 C 52.109375 7.917969 44.609375 0.417969 35.410156 0.417969 C 30.011719 0.417969 25.011719 2.992188 21.859375 7.34375 C 20.3125 6.144531 18.410156 5.492188 16.4375 5.492188 C 11.535156 5.492188 7.5625 9.46875 7.5625 14.367188 C 7.5625 15.441406 7.761719 16.492188 8.109375 17.46875 C 3.511719 19.117188 0.359375 23.542969 0.359375 28.46875 C 0.359375 33.441406 3.460938 37.792969 8.085938 39.46875 C 7.886719 40.492188 7.785156 41.566406 7.785156 42.644531 C 7.785156 51.84375 15.261719 59.316406 24.460938 59.316406 C 29.859375 59.316406 34.859375 56.71875 37.984375 52.367188 C 39.535156 53.59375 41.4375 54.269531 43.410156 54.269531 C 48.3125 54.269531 52.285156 50.292969 52.285156 45.394531 C 52.285156 44.316406 52.085938 43.269531 51.734375 42.292969 C 56.335938 40.644531 59.511719 36.21875 59.511719 31.292969 "/>
    <path style=" stroke:none;fill-rule:nonzero;fill:#002e46;fill-opacity:1;" d="M 23.609375 25.792969 L 36.5625 31.691406 L 49.609375 20.242188 C 49.8125 19.292969 49.886719 18.367188 49.886719 17.367188 C 49.886719 9.316406 43.335938 2.769531 35.285156 2.769531 C 30.460938 2.769531 25.984375 5.144531 23.261719 9.117188 L 21.085938 20.394531 Z M 23.609375 25.792969 "/>
    <path style=" stroke:none;fill-rule:nonzero;fill:#002e46;fill-opacity:1;" d="M 10.210938 39.492188 C 10.011719 40.441406 9.9375 41.417969 9.9375 42.417969 C 9.9375 50.492188 16.511719 57.042969 24.585938 57.042969 C 29.4375 57.042969 33.960938 54.644531 36.6875 50.644531 L 38.835938 39.417969 L 35.960938 33.917969 L 22.960938 27.992188 Z M 10.210938 39.492188 "/>
    <path style=" stroke:none;fill-rule:nonzero;fill:#002e46;fill-opacity:1;" d="M 10.136719 17.09375 L 19.011719 19.191406 L 20.960938 9.117188 C 19.761719 8.191406 18.261719 7.691406 16.710938 7.691406 C 12.859375 7.691406 9.710938 10.816406 9.710938 14.691406 C 9.710938 15.519531 9.859375 16.34375 10.136719 17.09375 "/>
    <path style=" stroke:none;fill-rule:nonzero;fill:#002e46;fill-opacity:1;" d="M 9.359375 19.21875 C 5.410156 20.519531 2.636719 24.316406 2.636719 28.492188 C 2.636719 32.566406 5.160156 36.191406 8.9375 37.644531 L 21.386719 26.394531 L 19.109375 21.519531 Z M 9.359375 19.21875 "/>
    <path style=" stroke:none;fill-rule:nonzero;fill:#002e46;fill-opacity:1;" d="M 38.9375 50.644531 C 40.160156 51.566406 41.636719 52.09375 43.160156 52.09375 C 47.011719 52.09375 50.160156 48.96875 50.160156 45.09375 C 50.160156 44.242188 50.011719 43.417969 49.734375 42.667969 L 40.886719 40.59375 Z M 38.9375 50.644531 "/>
    <path style=" stroke:none;fill-rule:nonzero;fill:#002e46;fill-opacity:1;" d="M 40.734375 38.269531 L 50.484375 40.542969 C 54.460938 39.242188 57.210938 35.441406 57.210938 31.242188 C 57.210938 27.191406 54.6875 23.542969 50.910156 22.117188 L 38.160156 33.292969 Z M 40.734375 38.269531 "/>
  </g>
</svg>