<?xml version="1.0" encoding="UTF-8"?>
<svg width="80" height="80" viewBox="0 0 130 130" xmlns="http://www.w3.org/2000/svg" xmlns:svg="http://www.w3.org/2000/svg">
 <defs><style>.cls-1{fill:#002e46}</style></defs>
 <g>
  <path class="cls-1" id="svg_1" d="m100.32,106.019997a53.060001,53.060001 0 0 1 -17.620003,13.339996l35.300003,0l0,-13.339996l-17.68,0z"/>
  <path class="cls-1" id="svg_2" d="m108.190002,71.580002a47.75,47.75 0 0 0 -84.720003,-30.25a10.69,10.69 0 0 1 2.869999,-21a10.83,10.83 0 0 1 2.660002,0.349998l-4.129999,8.360001l9.129999,-3.07l12.580002,-4.290001l-0.310001,-0.92l-7,-20.780001l-4.27,8.64a23.809999,23.809999 0 0 0 -8.620001,-1.619999a24.049999,24.049999 0 0 0 -9.92,45.939999a47.400002,47.400002 0 0 0 -0.639999,35.569996l-8.92,3.850006l21.300001,8.419998l8.43,-21.300003l-8.630001,3.730003a34.419998,34.419998 0 1 1 32.380001,22.809998l-60.380001,0l0,13.340004l60.41,0a47.830002,47.830002 0 0 0 47.780003,-47.779999z"/>
  <path class="cls-1" id="svg_3" d="m113.809998,119.260002l0,9.689995l16.190002,-16.269997l-16.209999,-16.18l0,9.379997"/>
 </g>
</svg>
