<?xml version="1.0" encoding="windows-1252"?>
<!-- Generator: Adobe Illustrator 16.0.0, SVG Export Plug-In . SVG Version: 6.00 Build 0)  -->
<!DOCTYPE svg PUBLIC "-//W3C//DTD SVG 1.1//EN" "http://www.w3.org/Graphics/SVG/1.1/DTD/svg11.dtd">
<svg version="1.1" id="Capa_1" xmlns="http://www.w3.org/2000/svg" xmlns:xlink="http://www.w3.org/1999/xlink" x="0px" y="0px" width="60px" height="60px" viewBox="0 0 910.812 910.812" style="enable-background:new 0 0 910.812 910.812;" xml:space="preserve">
<g>
	<g>
		<g>
			<path d="M122.483,50v810.812c0,27.613,22.386,50,50,50h383.655V758.703H223.57c-8.284,0-15-6.717-15-15c0-8.285,6.716-15,15-15     h333.404c4.744-28.377,29.462-50.076,59.164-50.076h172.183V50c0-27.614-22.386-50-50-50H172.483     C144.868,0,122.483,22.386,122.483,50z M514.657,94.062l42.478,151.899c9.694,34.166,16.621,63.715,26.777,98.342h1.848     c10.156-34.627,17.082-64.176,26.316-98.342l42.016-151.899h54.941l-93.725,301.952h-63.253L457.868,94.062H514.657z      M358.609,88.522c36.475,0,66.947,18.006,85.877,38.321l-30.011,33.243c-15.236-15.236-32.319-24.932-55.404-24.932     c-49.864,0-84.953,41.553-84.953,109.423c0,68.794,32.319,110.347,83.106,110.347c26.777,0,46.17-11.081,63.253-30.011     l30.01,32.781c-24.47,28.164-56.327,43.862-94.187,43.862c-77.104,0-137.125-55.404-137.125-155.593     C219.176,147.158,281.043,88.522,358.609,88.522z M223.57,471.627h463.664c8.284,0,15,6.717,15,15s-6.716,15-15,15H223.57     c-8.284,0-15-6.717-15-15S215.285,471.627,223.57,471.627z M223.57,604.709h463.664c8.284,0,15,6.717,15,15     c0,8.285-6.716,15-15,15H223.57c-8.284,0-15-6.715-15-15C208.57,611.426,215.285,604.709,223.57,604.709z"/>
			<path d="M783.624,708.627H616.139c-16.569,0-30,13.432-30,30v167.508v4.678l202.19-202.186H783.624L783.624,708.627z"/>
		</g>
	</g>
</g>
</svg>
