<?xml version="1.0" encoding="UTF-8" standalone="yes"?>
<svg xmlns="http://www.w3.org/2000/svg" xmlns:xlink="http://www.w3.org/1999/xlink" width="60px" height="60px" viewBox="0 0 45 45" version="1.1">
  <g id="surface1">
    <path style=" stroke:none;fill-rule:nonzero;fill:rgb(0%,0%,0%);fill-opacity:1;" d="M 22.5 0 C 10.074219 0 0 10.074219 0 22.5 C 0 32.441406 6.445312 40.875 15.386719 43.847656 C 16.511719 44.054688 16.921875 43.359375 16.921875 42.765625 C 16.921875 42.230469 16.902344 40.457031 16.890625 38.578125 C 10.632812 39.9375 9.3125 35.925781 9.3125 35.925781 C 8.289062 33.328125 6.8125 32.636719 6.8125 32.636719 C 4.769531 31.238281 6.96875 31.265625 6.96875 31.265625 C 9.226562 31.421875 10.417969 33.585938 10.417969 33.585938 C 12.425781 37.023438 15.6875 36.03125 16.964844 35.453125 C 17.171875 34.003906 17.753906 33.007812 18.394531 32.449219 C 13.398438 31.878906 8.144531 29.949219 8.144531 21.328125 C 8.144531 18.867188 9.023438 16.863281 10.460938 15.289062 C 10.230469 14.71875 9.457031 12.429688 10.679688 9.332031 C 10.679688 9.332031 12.570312 8.726562 16.871094 11.636719 C 18.664062 11.136719 20.585938 10.890625 22.5 10.882812 C 24.410156 10.890625 26.335938 11.140625 28.132812 11.640625 C 32.425781 8.726562 34.316406 9.335938 34.316406 9.335938 C 35.546875 12.433594 34.773438 14.71875 34.539062 15.289062 C 35.984375 16.863281 36.855469 18.867188 36.855469 21.328125 C 36.855469 29.96875 31.589844 31.875 26.578125 32.429688 C 27.390625 33.128906 28.105469 34.496094 28.105469 36.59375 C 28.105469 39.601562 28.074219 42.027344 28.074219 42.769531 C 28.074219 43.367188 28.484375 44.070312 29.625 43.847656 C 38.558594 40.867188 45 32.4375 45 22.5 C 45 10.074219 34.925781 0 22.5 0 Z M 22.5 0 "/>
  </g>
</svg>