<?xml version="1.0" encoding="UTF-8" standalone="yes"?>
<svg xmlns="http://www.w3.org/2000/svg" xmlns:xlink="http://www.w3.org/1999/xlink" width="60px" height="60px" viewBox="0 0 45 45" version="1.1">
  <g id="surface1">
    <path style=" stroke:none;fill-rule:nonzero;fill:rgb(0%,0%,0%);fill-opacity:1;" d="M 32.421875 40.808594 L 32.421875 28.941406 L 36.359375 28.941406 L 36.359375 44.746094 L 0.816406 44.746094 L 0.816406 28.941406 L 4.753906 28.941406 L 4.753906 40.808594 Z M 32.421875 40.808594 "/>
    <path style=" stroke:none;fill-rule:nonzero;fill:rgb(0%,0%,0%);fill-opacity:1;" d="M 9.101562 27.816406 L 28.433594 31.859375 L 29.25 27.972656 L 9.921875 23.933594 Z M 11.660156 18.613281 L 29.558594 26.949219 L 31.191406 23.371094 L 13.296875 14.984375 Z M 16.621094 9.816406 L 31.808594 22.449219 L 34.3125 19.433594 L 19.125 6.800781 Z M 26.4375 0.460938 L 23.265625 2.8125 L 35.027344 18.664062 L 38.199219 16.3125 Z M 8.691406 36.816406 L 28.433594 36.816406 L 28.433594 32.878906 L 8.691406 32.878906 Z M 8.691406 36.816406 "/>
  </g>
</svg>