<?xml version="1.0" encoding="UTF-8"?>
<svg width="102.19" height="102.19" xmlns="http://www.w3.org/2000/svg" xmlns:svg="http://www.w3.org/2000/svg">
 <metadata id="metadata24">image/svg+xml</metadata>

 <g>
  <title>Layer 1</title>
  <path fill="#ffffff" d="m93.986,78.860001c-1.969398,-0.451698 -4.0578,-0.73674 -6.171402,-0.73674c-3.614098,0 -6.902802,0.625069 -9.327301,1.637299c-0.267296,0.131264 -0.45768,0.410561 -0.45768,0.728798c0,0.116692 0.029106,0.234116 0.073402,0.33371c0.286263,0.830032 -0.184471,1.730301 -2.532196,2.2472c-3.480103,0.764275 -5.678001,4.355705 -6.933807,5.548607c-1.477196,1.402496 -5.646297,2.261597 -5.018997,1.426895c0.490891,-0.651962 2.366699,-2.691002 3.508598,-4.893799c1.020706,-1.969101 1.929604,-2.528603 3.182205,-4.408203c0.36692,-0.548218 1.791298,-2.484398 2.206299,-4.017296c0.464966,-1.492401 0.3078,-3.370399 0.486519,-4.140701c0.25621,-1.114998 1.306999,-3.531403 1.386101,-4.894997c0.045799,-0.77343 -3.222404,1.101494 -4.772697,1.101494c-1.549606,0 -3.060402,-0.930595 -4.445503,-0.997078c-1.714802,-0.0784 -2.8162,1.324203 -4.367802,1.078705c-0.884678,-0.142365 -1.631199,-0.923073 -3.178997,-0.980652c-2.204803,-0.080002 -4.897602,1.226097 -9.956303,1.063202c-4.974701,-0.162613 -9.571198,-6.288403 -10.197998,-7.262703c-0.735439,-1.142002 -1.632801,-1.142002 -2.611202,-0.243912c-0.98,0.8974 -2.185799,0.192001 -2.529598,-0.411209c-0.652601,-1.140301 -2.3971,-4.4772 -5.100101,-5.177898c-3.737299,-0.967613 -5.629499,2.069099 -5.383799,4.487099c0.24925,2.452801 1.8346,3.141098 2.570099,4.445896c0.73382,1.304504 1.109301,2.145004 2.4916,2.721603c0.979031,0.411201 1.343801,1.013802 1.0527,1.819504c-0.25622,0.698753 -1.2754,0.858528 -1.945299,0.891724c-1.423401,0.068001 -2.4214,-0.317596 -3.149601,-0.783218c-0.847109,-0.540939 -1.535099,-1.290001 -2.2738,-2.562202c-0.855619,-1.404198 -2.201599,-2.016197 -3.7705,-2.016197c-0.747509,0 -1.447199,0.197342 -2.068799,0.517448c-2.4579,1.281204 -5.3844,2.036499 -8.5353,2.036499l-3.5529,0.003006c6.8135,20.208 25.920999,34.760994 48.428998,34.760994c17.979,0 33.787998,-9.284393 42.895,-23.322998" id="path6"/>
  <path fill="#ffffff" id="path8" d="m102.150391,73.382813c-1.43,0 -2.587891,1.157028 -2.587891,2.582031c0,1.424004 1.15789,2.582039 2.587891,2.582039c1.419998,0 2.580078,-1.158035 2.580078,-2.582039c0,-1.425003 -1.16008,-2.582031 -2.580078,-2.582031zm0,0.457031c1.169998,0 2.119141,0.951942 2.119141,2.126953c0,1.171989 -0.949142,2.119141 -2.119141,2.119141c-1.18,0 -2.130859,-0.947151 -2.130859,-2.119141c0,-1.175011 0.950859,-2.126953 2.130859,-2.126953zm-0.873047,0.804688l0,2.634766l0.398438,0l0,-1.140625l0.460938,0l0.695313,1.140625l0.447266,0l-0.751953,-1.162109c0.391113,-0.047699 0.685547,-0.251274 0.685547,-0.720711c0,-0.524734 -0.307777,-0.751945 -0.929688,-0.751945l-1.005859,0zm0.398438,0.337891l0.544922,0c0.276131,0 0.574219,0.06131 0.574219,0.386719c0,0.403351 -0.299713,0.431641 -0.640625,0.431641l-0.478516,0l0,-0.818359z"/>
  <path fill="#100f0d" d="m51.096001,0c-28.219,0 -51.096001,22.875 -51.096001,51.096001c0,5.711998 0.93668,11.203999 2.666,16.332001l3.5528,0c3.1508,0 6.077199,-0.759003 8.5352,-2.037003c0.621,-0.32 1.323,-0.515999 2.07,-0.515999c1.569,0 2.914001,0.610001 3.77,2.014c0.738001,1.273003 1.426001,2.022003 2.273001,2.559998c0.727999,0.467003 1.726999,0.854004 3.150999,0.787003c0.67,-0.032997 1.689001,-0.194 1.945,-0.893997c0.291,-0.804001 -0.073999,-1.410004 -1.052999,-1.817001c-1.382,-0.577003 -1.757999,-1.422005 -2.492001,-2.725998c-0.734999,-1.305004 -2.320999,-1.993004 -2.57,-4.445004c-0.246,-2.417 1.647001,-5.453999 5.384001,-4.485001c2.702999,0.699001 4.447001,4.038002 5.1,5.18c0.343998,0.601002 1.549,1.304001 2.528999,0.41c0.979,-0.900002 1.875999,-0.898998 2.612,0.243999c0.626999,0.973999 5.223999,7.101002 10.199001,7.261997c5.058998,0.162003 7.75,-1.143997 9.954998,-1.062996c1.548,0.058998 2.295002,0.835999 3.18,0.978996c1.551003,0.245003 2.652,-1.157997 4.367004,-1.075996c1.384995,0.068001 2.895996,0.994003 4.445,0.994003c1.549995,0 4.819,-1.870003 4.773994,-1.100006c-0.079994,1.364006 -1.130997,3.781006 -1.387001,4.893005c-0.178993,0.772995 -0.020996,2.648994 -0.486,4.143997c-0.414993,1.529999 -1.838997,3.467003 -2.205994,4.017998c-1.252007,1.878006 -2.162003,2.438004 -3.183006,4.406006c-1.141998,2.202995 -3.016998,4.240997 -3.507996,4.894997c-0.627003,0.834 3.542,-0.027 5.019997,-1.428001c1.255005,-1.194 3.453003,-4.784996 6.932999,-5.548996c2.348007,-0.514999 2.818001,-1.416 2.531006,-2.248001c-0.043999,-0.096001 -0.071999,-0.217003 -0.071999,-0.332001c0,-0.318001 0.189995,-0.596001 0.456993,-0.730003c2.425003,-1.008995 5.712006,-1.634995 9.326004,-1.634995c2.113998,0 4.203003,0.280998 6.171997,0.736c5.188004,-7.998001 8.200005,-17.532001 8.200005,-27.773003c0,-28.221001 -22.874001,-51.096001 -51.094002,-51.096001z" id="path12"/>
  <path fill="#100f0d" d="m62.346001,74.18c0.261959,0.254272 0.715851,1.119797 0.16074,2.212303c-0.310062,0.58046 -0.64378,0.986969 -1.2416,1.464897c-0.718681,0.577286 -2.1241,1.241196 -4.050499,0.020203c-1.035,-0.657623 -1.099201,-0.878777 -2.529003,-0.693985c-1.021797,0.13443 -1.4282,-0.896507 -1.061298,-1.7556c0.367561,-0.854401 1.877399,-1.546799 3.753201,-0.44635c0.844521,0.495674 2.161098,1.544304 3.314098,0.615601c0.476959,-0.38311 0.763222,-0.637383 1.4259,-1.4058c0.031002,-0.031601 0.072701,-0.051201 0.11953,-0.051201c0.041801,0 0.079803,0.016403 0.108833,0.039803" id="path16"/>
  <path fill="#cd1e25" d="m58.772999,10.535c-1.168999,0.045 -2.349998,0.215 -3.501999,0.51c-1.695999,0.434999 -5.014,2.161 -11.167,0.775c-10.651001,-2.3983 -12.229,2.935 -12.837999,5.256001c-0.613001,2.324999 -2.08,8.927999 -2.08,8.927999c-0.490002,2.690001 -1.130001,7.365 15.405998,10.516001c7.705002,1.466 8.095001,3.456001 8.435001,4.888c0.612,2.565998 1.591,4.035999 2.692001,4.77c1.099998,0.736 -0.001003,1.343998 -1.223003,1.467999c-3.280998,0.341 -15.406998,-3.139 -22.579998,-7.214001c-5.870001,-3.587997 -5.967001,-6.816998 -4.623001,-9.556999c-8.865999,-0.959 -15.520999,0.832001 -16.726999,5.028999c-2.0699,7.202999 15.834999,19.505001 36.225,25.68c21.399002,6.477997 43.408997,1.956001 45.855003,-11.493999c1.109993,-6.110001 -4.036003,-10.630001 -12.716003,-12.588001c-0.505997,1.697002 -1.224998,3.866001 -4.419998,5.506001c-0.465004,0.239002 -0.642006,-0.151001 -0.428001,-0.517998c1.208,-2.053001 1.421997,-2.567001 1.773003,-3.377003c0.491997,-1.183998 0.747993,-2.871998 -0.228004,-6.383999c-1.921997,-6.916 -5.931,-16.158001 -8.844002,-19.157001c-2.108994,-2.169999 -5.501999,-3.169999 -9.009998,-3.037zm0.963001,2.369c0.097,0 0.193001,0.000999 0.291,0.002c3.274998,0.073999 5.898003,1.375999 5.860001,2.906c-0.040001,1.532999 -2.724003,2.713999 -6,2.640999c-1.060001,-0.025 -2.055,-0.178999 -2.912003,-0.425999c-0.100998,-0.026001 -0.174,-0.112 -0.174,-0.215c0,-0.102001 0.072002,-0.189001 0.176003,-0.214001c2.042,-0.473 3.423,-1.246 3.326,-1.976999c-0.128002,-0.968 -2.802002,-1.493 -5.971001,-1.176001c-0.347,0.037001 -0.686001,0.082001 -1.014,0.133c-0.007999,0 -0.016003,0.002 -0.025002,0.002c-0.091999,0 -0.166,-0.071 -0.166,-0.154c0,-0.063 0.038002,-0.118 0.094002,-0.143c1.144001,-0.604 2.850998,-1.084 4.804001,-1.283c0.586998,-0.06 1.16,-0.093 1.710999,-0.096zm-24.285,6.155c0.522999,-0.021 1.006001,0.257 1.237,0.542999c0.557999,0.695002 1.751999,1.834002 3.299999,1.793001c1.549,-0.042 3.336002,-0.366001 5.828003,-0.366001c2.525997,0 4.225998,0.944 4.320999,1.754002c0.082001,0.691999 -0.206001,1.344 -3.018002,1.546999c-5.902,0.427 -6.514999,1.063999 -7.620998,2.242001c-1.559002,1.66 -3.611,-2.154001 -3.611,-2.154001c-1.232002,-0.259998 -2.726002,-2.247 -1.920002,-4.101999c0.396999,-0.917 0.961002,-1.237 1.484001,-1.257z" id="path18"/>
 </g>
</svg>