<?xml version="1.0" encoding="UTF-8"?>
<svg width="64" height="64" xmlns="http://www.w3.org/2000/svg" xmlns:svg="http://www.w3.org/2000/svg">
 <g>
  <title>Layer 1</title>
  <path d="m12.8,51.200001l0,-26.816l8.192,0l0,26.816l-8.192,0m8.447999,-34.240002c0.064001,2.304001 -1.664,4.160002 -4.415998,4.160002c-2.56,0 -4.224001,-1.856001 -4.224001,-4.160002c0,-2.367999 1.728001,-4.159999 4.351999,-4.159999s4.288,1.792 4.288,4.159999m21.504,34.240002l0,-14.848c0,-3.456001 -1.152,-5.824001 -4.16,-5.824001c-2.239998,0 -3.584,1.599998 -4.223999,3.136002c-0.192001,0.576 -0.256001,1.343998 -0.256001,2.112l0,15.424l-8.191999,0l0,-18.240002c0,-3.327999 -0.128,-6.143999 -0.191999,-8.575998l7.104,0l0.383999,3.775999l0.128002,0c1.087997,-1.792 3.775997,-4.351999 8.191998,-4.351999c5.375999,0 9.472,3.647999 9.472,11.583998l0,15.808002l-8.256001,0m21.248001,-45.568001c0,-3.072 -2.560001,-5.632 -5.632,-5.632l-52.736,0c-3.072,0 -5.632,2.56 -5.632,5.632l0,52.736c0,3.071999 2.56,5.632 5.632,5.632l52.736,0c3.071999,0 5.632,-2.560001 5.632,-5.632l0,-52.736" fill="black" id="svg_1"/>
 </g>

</svg>
