<?xml version="1.0" encoding="UTF-8" standalone="yes"?>
<svg xmlns="http://www.w3.org/2000/svg" xmlns:xlink="http://www.w3.org/1999/xlink" width="60px" height="60px" viewBox="0 0 45 45" version="1.1">
  <g id="surface1">
    <path style=" stroke:none;fill-rule:nonzero;fill:rgb(0%,0%,0%);fill-opacity:1;" d="M 9 36 L 9 17.144531 L 14.761719 17.144531 L 14.761719 36 L 9 36 M 14.941406 11.925781 C 14.984375 13.546875 13.769531 14.851562 11.835938 14.851562 C 10.035156 14.851562 8.863281 13.546875 8.863281 11.925781 C 8.863281 10.261719 10.078125 9 11.925781 9 C 13.769531 9 14.941406 10.261719 14.941406 11.925781 M 30.058594 36 L 30.058594 25.558594 C 30.058594 23.128906 29.25 21.464844 27.136719 21.464844 C 25.558594 21.464844 24.613281 22.589844 24.164062 23.671875 C 24.03125 24.074219 23.984375 24.613281 23.984375 25.15625 L 23.984375 36 L 18.226562 36 L 18.226562 23.175781 C 18.226562 20.835938 18.136719 18.855469 18.089844 17.144531 L 23.085938 17.144531 L 23.355469 19.800781 L 23.445312 19.800781 C 24.210938 18.539062 26.101562 16.738281 29.203125 16.738281 C 32.984375 16.738281 35.863281 19.304688 35.863281 24.886719 L 35.863281 36 L 30.058594 36 M 45 3.960938 C 45 1.800781 43.199219 0 41.039062 0 L 3.960938 0 C 1.800781 0 0 1.800781 0 3.960938 L 0 41.039062 C 0 43.199219 1.800781 45 3.960938 45 L 41.039062 45 C 43.199219 45 45 43.199219 45 41.039062 L 45 3.960938 "/>
  </g>
</svg>