<?xml version="1.0" encoding="UTF-8"?>
<svg width="88" height="88" xmlns="http://www.w3.org/2000/svg" xmlns:svg="http://www.w3.org/2000/svg">
 <style type="text/css">.st0{fill:black;}
	.st1{fill:black;}</style>

 <g>
  <title>Layer 1</title>
  <polygon id="svg_1" points="63.400001525878906,79.80000305175781 63.400001525878906,56.599998474121094 71.0999984741211,56.599998474121094 71.0999984741211,87.5 1.6000003814697266,87.5 1.6000003814697266,56.599998474121094 9.299999237060547,56.599998474121094 9.299999237060547,79.80000305175781 " class="st0"/>
  <path fill="black" id="svg_2" d="m17.799999,54.400002l37.799999,7.900002l1.599998,-7.600006l-37.799995,-7.899998l-1.600002,7.600002zm5,-18l35.000004,16.299995l3.199997,-6.999996l-35,-16.400002l-3.200001,7.100002zm9.700001,-17.200001l29.699997,24.700001l4.900002,-5.900002l-29.699997,-24.700001l-4.900002,5.900002zm19.199997,-18.300001l-6.199997,4.6l23,31l6.199997,-4.599998l-23,-31.000002zm-34.699997,71.1l38.599998,0l0,-7.699997l-38.599998,0l0,7.699997z" class="st1"/>
 </g>
</svg>
