<?xml version="1.0" encoding="UTF-8"?>
<svg width="210" height="40" xmlns="http://www.w3.org/2000/svg" xmlns:svg="http://www.w3.org/2000/svg">

 <g>
  <title>Layer 1</title>
  <g id="svg_1">
   <path id="svg_2" fill="#81BA27" d="m28.4,31c-5.5,0 -10,-4.5 -10,-10s4.5,-10 10,-10c5.6,-0.1 10.000002,4.4 10.000002,9.9s-4.400002,10.1 -10.000002,10.1zm0,-17.5c-4.199999,0 -7.6,3.4 -7.6,7.6s3.400002,7.6 7.6,7.6c4.199999,0 7.6,-3.400002 7.6,-7.6s-3.400002,-7.6 -7.6,-7.6z"/>
   <path id="svg_3" fill="#81BA27" d="m200.5,30.799999c-0.199997,-2.199999 -2,-3.799999 -4.199997,-3.599998c-2.199997,0.199999 -3.800003,2 -3.600006,4.099998c0.199997,2.200001 2,3.799999 4.199997,3.600002c2.100006,-0.100002 3.700012,-2 3.600006,-4.100002z"/>
   <path id="svg_4" fill="#333333" d="m123.599998,34.400002c-1,0.299999 -3,0.599998 -4.5,0.899998c-1.599998,0.299999 -3.199997,0.299999 -4.900002,0.299999c-1.699997,0 -3.299995,-0.299999 -4.699997,-0.799999c-1.400002,-0.5 -2.599998,-1.299999 -3.599998,-2.399998c-1,-1.000002 -1.700005,-2.300001 -2.300003,-3.700001c-0.5,-1.400002 -0.799995,-3.1 -0.799995,-4.900002c0,-1.699999 0.299995,-3.4 0.699997,-4.799999c0.400002,-1.4 1.099998,-2.700001 1.900002,-3.7c0.900002,-1 1.900002,-1.8 3.099998,-2.400001c1.199997,-0.5 2.599998,-0.9 4.199997,-0.9c1,0 2,0.1 2.900002,0.3c0.800003,0.3 1.599998,0.5 2.200005,0.9l0,-10.5l5.899994,-0.9l-0.099998,32.600002l0,0zm-15.5,-10.500002c0,2.300001 0.5,4.1 1.700005,5.4c1,1.300001 2.599998,1.900002 4.5,1.900002c0.799995,0 1.599998,0 2.099998,-0.1c0.599998,-0.1 1,-0.200001 1.400002,-0.300001l0,-12.799999c-0.400002,-0.299999 -1,-0.6 -1.800003,-0.9c-0.800003,-0.300001 -1.599998,-0.4 -2.400002,-0.4c-1.900002,0 -3.199997,0.599998 -4.099998,1.9c-1,1.299999 -1.400002,3.1 -1.400002,5.299999z"/>
   <path id="svg_5" fill="#333333" d="m172.699997,34.900002c-1,0.299999 -2.699997,0.299999 -4.399994,0.5c-1.699997,0.199997 -3.300003,0.299999 -5.199997,0.299999c-1.800003,0 -3.300003,-0.299999 -4.5,-0.799999s-2.200012,-1.200001 -2.900009,-2.100002c-0.699997,-0.9 -1.199997,-2 -1.599991,-3.199999c-0.300003,-1.300001 -0.400009,-2.6 -0.400009,-4.200001l0,-12.2l5.699997,0l0,11.2c0,2.4 0.300003,4.1 1,5.200001c0.700012,1 1.900009,1.6 3.700012,1.6c0.599991,0 0.799988,0 1.5,-0.1c0.699997,-0.1 1.199997,-0.1 1.599991,-0.200001l0,-17.7l5.600006,0l0,21.700002l-0.100006,0z"/>
   <path id="svg_6" fill="#333333" d="m45,35.5l0,-30.4l20.400002,0l0,5.2l-14.400002,0l0,7.900001l12,0l0,4.799999l-12,0l0,12.599998l-6,0l0,-0.099998z"/>
   <path id="svg_7" fill="#333333" d="m99.5,35.5l-5.800003,0l0,-12.6c0,-1.799999 -0.299995,-3.1 -1,-3.9s-1.5,-1.200001 -2.599998,-1.200001c-0.599998,0 -1.099998,0.1 -1.699997,0.300001c-0.599998,0.299999 -1.099998,0.5 -1.700005,1c-0.5,0.4 -1,0.9 -1.399994,1.5c-0.400002,0.6 -0.800003,1.199999 -1,1.9l0,13.099998l-5.800003,0l0,-22.599998l5.199997,0l0,4.200001c0.800003,-1.400001 2,-2.500001 3.600006,-3.300001c1.599998,-0.799999 3.299995,-1.2 5.299995,-1.2c1.400002,0 2.5,0.3 3.400002,0.8c0.900002,0.5 1.599998,1.2 2.099998,2c0.5,0.799999 0.800003,1.700001 1,2.799999c0.200005,1 0.300003,2.1 0.300003,3.200001l0.099998,14l0,0z"/>
   <path id="svg_8" fill="#333333" d="m138.699997,35.400002c-1.800003,0 -3.5,-0.300003 -4.899994,-1c-1.5,-0.600002 -2.699997,-1.5 -3.699997,-2.500002c-1,-1 -1.800003,-2.299999 -2.400009,-3.699999c-0.5,-1.400002 -0.799995,-2.900002 -0.799995,-4.400002c0,-1.599998 0.299995,-3.099998 0.799995,-4.5c0.5,-1.4 1.300003,-2.599998 2.400009,-3.699999c1,-1 2.299988,-1.900001 3.699997,-2.5c1.5,-0.6 3.099991,-1 4.899994,-1c1.800003,0 3.5,0.299999 4.900009,1c1.5,0.599999 2.699997,1.5 3.699997,2.5c1,1 1.699997,2.299999 2.399994,3.699999c0.5,1.400002 0.800003,2.900002 0.800003,4.5c0,1.6 -0.300003,3 -0.800003,4.400002s-1.300003,2.599998 -2.300003,3.699999c-1,1.000002 -2.299988,1.9 -3.699997,2.500002c-1.599991,0.699997 -3.300003,1 -5,1zm-6,-11.600002c0,1 0.199997,1.900002 0.400009,2.700001c0.299988,0.799999 0.699997,1.5 1.199997,2.1c0.5,0.6 1.099991,1 1.800003,1.4c0.699997,0.299999 1.5,0.5 2.299988,0.5s1.600006,-0.200001 2.300003,-0.5c0.699997,-0.299999 1.300003,-0.799999 1.800003,-1.4c0.5,-0.6 1,-1.300001 1.199997,-2.200001c0.300003,-0.799999 0.400009,-1.699999 0.400009,-2.699999c0,-1 -0.200012,-1.800001 -0.400009,-2.700001c-0.300003,-0.799999 -0.699997,-1.6 -1.199997,-2.200001c-0.5,-0.599998 -1.100006,-1 -1.800003,-1.4c-0.699997,-0.4 -1.5,-0.5 -2.300003,-0.5c-0.899994,0 -1.599991,0.200001 -2.299988,0.5c-0.700012,0.300001 -1.300003,0.800001 -1.800003,1.4c-0.5,0.6 -1,1.300001 -1.199997,2.1c-0.200012,1 -0.400009,1.9 -0.400009,2.9z"/>
   <path id="svg_9" fill="#333333" d="m177.300003,12.5l0,-7.2l5.800003,0l0,7.2l4.699997,0l0,4.4l-4.800003,0l0,10.9c0,0.800001 0.199997,1.400002 0.600006,1.700001c0.399994,0.299999 1,0.5 1.5,0.5c0.599991,0 1.199997,-0.1 1.699997,-0.299999c0.599991,-0.200001 1,-0.300001 1.399994,-0.5l1.100006,4.5c-0.800003,0.299999 -1.699997,0.700001 -2.800003,1c-1.100006,0.299999 -2.300003,0.5 -3.5,0.5c-0.800003,0 -1.600006,-0.100002 -2.300003,-0.299999s-1.300003,-0.5 -1.800003,-1c-0.5,-0.400002 -1,-1 -1.199997,-1.700001c-0.300003,-0.700001 -0.399994,-1.6 -0.399994,-2.5l0,-12.800001"/>
   <path id="svg_10" fill="none" stroke="#358ECD" stroke-width="6.1245" stroke-miterlimit="10" d="m28.4,21.200001"/>
   <path id="svg_11" fill="none" stroke="#358ECD" stroke-width="6.1245" stroke-miterlimit="10" d="m28.4,21.200001"/>
   <path id="svg_12" fill="none" stroke="#358ECD" stroke-width="6.1245" stroke-miterlimit="10" d="m28.4,21.1"/>
   <rect id="svg_13" fill="#333333" height="22.4" width="5.8" y="13" x="68.5"/>
   <path id="svg_14" fill="#333333" d="m32.599998,18.200001c-0.799999,-1 -1.899998,-1.800001 -3.199999,-2c-1.199999,-0.200001 -2.4,0.099998 -3.5,0.699999l-8.6,-7.099999c0.200001,-0.400001 0.300001,-0.8 0.300001,-1.2c0.299999,-1.6 0,-3.1 -1,-4.5c-0.900001,-1.3 -2.3,-2.2 -3.8,-2.4c-3.2,-0.5 -6.3,1.6 -6.8,4.8c-0.4,2.5 0.8,5 2.9,6.1l-2.7,11.299999c-2.7,0.1 -5.1,2.1 -5.6,4.9c-0.5,3.200001 1.7,6.299999 4.8,6.799999c0.1,0 0.3,0 0.3,0.100002l0,0c3.1,0.299999 5.900001,-1.700001 6.5,-4.900002c0.1,-0.4 0.1,-1 0.1,-1.4l12.400001,-5.1c0.699999,0.800001 1.699999,1.400002 2.9,1.6c0.1,0 0.199999,0 0.299999,0l0,0c2.6,0.300001 5.000002,-1.5 5.4,-4.1c0.299999,-1.199999 0,-2.5 -0.700001,-3.599998zm-21.399999,8c-0.5,-0.700001 -1,-1.200001 -1.7,-1.6l2.7,-11.200001c1.1,-0.099999 2.2,-0.4 3.1,-1l8.599999,7.1c-0.1,0.299999 -0.199999,0.4 -0.199999,0.700001c-0.1,0.299999 -0.1,0.699999 -0.1,1l-12.400001,5z"/>
   <path id="svg_15" fill="#333333" d="m74.199997,6.9c-0.099998,-1.5 -1.399994,-2.6 -2.899994,-2.5c-1.5,0.1 -2.600006,1.4 -2.5,2.9c0.099998,1.5 1.399994,2.599999 2.899994,2.5c1.5,-0.1 2.600006,-1.400001 2.5,-2.9z"/>
  </g>
 </g>
</svg>
