<?xml version="1.0" encoding="UTF-8"?>
<svg width="130" height="130" xmlns="http://www.w3.org/2000/svg" xmlns:svg="http://www.w3.org/2000/svg" preserveAspectRatio="xMinYMin meet">
 <metadata id="metadata22">image/svg+xml</metadata>

 <g>
  <title>Layer 1</title>
  <g fill="#009900" id="g4">
   <path d="m34.574791,11.65364l-3.054081,5.69917l-23.6191,42.926041l-3.05408,5.419102l3.05408,5.414658l23.6191,41.539032l3.191891,5.694717l61.82399,0l3.05407,-6.250412l17.644318,-35.56424l7.917496,-16.115047l-17.919937,0l-45.148796,0.13781c-5.872551,-0.080021 -11.273861,5.241276 -11.273861,11.113834c0,5.872536 5.40131,11.198288 11.273861,11.113815l27.228867,-0.13781l-6.668297,13.474403l-35.008541,0l-17.368689,-30.563019l17.506498,-31.674393l37.2402,0l8.682121,17.817677l22.369911,0l-14.101219,-33.790468l-3.058533,-6.25486l-64.331261,0" id="path8"/>
  </g>
 </g>
</svg>