<?xml version="1.0" encoding="UTF-8" standalone="yes"?>
<svg xmlns="http://www.w3.org/2000/svg" xmlns:xlink="http://www.w3.org/1999/xlink" width="80px" height="80px" viewBox="0 0 60 60" version="1.1">
  <g id="surface1">
    <path style=" stroke:none;fill-rule:nonzero;fill:rgb(32.54902%,61.960784%,26.27451%);fill-opacity:1;" d="M 29.894531 59.890625 C 29.070312 59.890625 28.300781 59.667969 27.585938 59.285156 L 20.269531 54.9375 C 19.167969 54.332031 19.71875 54.113281 20.046875 54 C 21.535156 53.507812 21.808594 53.394531 23.347656 52.515625 C 23.515625 52.40625 23.734375 52.460938 23.898438 52.570312 L 29.511719 55.925781 C 29.730469 56.039062 30.007812 56.039062 30.171875 55.925781 L 52.125 43.21875 C 52.34375 43.109375 52.453125 42.886719 52.453125 42.613281 L 52.453125 17.25 C 52.453125 16.972656 52.34375 16.753906 52.125 16.644531 L 30.171875 3.988281 C 29.953125 3.878906 29.675781 3.878906 29.511719 3.988281 L 7.558594 16.644531 C 7.339844 16.753906 7.226562 17.027344 7.226562 17.25 L 7.226562 42.613281 C 7.226562 42.832031 7.339844 43.109375 7.558594 43.21875 L 13.554688 46.683594 C 16.800781 48.335938 18.835938 46.410156 18.835938 44.484375 L 18.835938 19.449219 C 18.835938 19.121094 19.113281 18.789062 19.496094 18.789062 L 22.304688 18.789062 C 22.632812 18.789062 22.964844 19.0625 22.964844 19.449219 L 22.964844 44.484375 C 22.964844 48.828125 20.597656 51.359375 16.472656 51.359375 C 15.207031 51.359375 14.214844 51.359375 11.410156 49.984375 L 5.632812 46.683594 C 4.203125 45.859375 3.320312 44.316406 3.320312 42.667969 L 3.320312 17.304688 C 3.320312 15.652344 4.203125 14.113281 5.632812 13.289062 L 27.585938 0.578125 C 28.960938 -0.191406 30.832031 -0.191406 32.207031 0.578125 L 54.160156 13.289062 C 55.589844 14.113281 56.46875 15.652344 56.46875 17.304688 L 56.46875 42.667969 C 56.46875 44.316406 55.589844 45.859375 54.160156 46.683594 L 32.207031 59.394531 C 31.492188 59.722656 30.667969 59.890625 29.894531 59.890625 Z M 36.664062 42.449219 C 27.035156 42.449219 25.054688 38.046875 25.054688 34.304688 C 25.054688 33.972656 25.328125 33.644531 25.714844 33.644531 L 28.574219 33.644531 C 28.90625 33.644531 29.179688 33.863281 29.179688 34.195312 C 29.621094 37.109375 30.886719 38.542969 36.71875 38.542969 C 41.339844 38.542969 43.320312 37.496094 43.320312 35.019531 C 43.320312 33.589844 42.769531 32.542969 35.5625 31.828125 C 29.566406 31.222656 25.824219 29.902344 25.824219 25.117188 C 25.824219 20.660156 29.566406 18.019531 35.839844 18.019531 C 42.878906 18.019531 46.347656 20.441406 46.789062 25.722656 C 46.789062 25.886719 46.730469 26.050781 46.621094 26.214844 C 46.511719 26.328125 46.347656 26.4375 46.183594 26.4375 L 43.320312 26.4375 C 43.046875 26.4375 42.769531 26.214844 42.714844 25.941406 C 42.054688 22.914062 40.351562 21.925781 35.839844 21.925781 C 30.777344 21.925781 30.171875 23.6875 30.171875 25.007812 C 30.171875 26.601562 30.886719 27.097656 37.707031 27.976562 C 44.476562 28.859375 47.667969 30.125 47.667969 34.855469 C 47.613281 39.695312 43.652344 42.449219 36.664062 42.449219 Z M 36.664062 42.449219 "/>
  </g>
</svg>