<?xml version="1.0" encoding="UTF-8"?>
<svg width="110" height="110" xmlns="http://www.w3.org/2000/svg" xmlns:svg="http://www.w3.org/2000/svg">
 <metadata id="metadata24">image/svg+xml</metadata>

 <g>
  <title>Layer 1</title>
  <path fill="#ffffff" d="m97.986,82.860001c-1.969398,-0.451698 -4.0578,-0.73674 -6.171402,-0.73674c-3.614098,0 -6.902802,0.625069 -9.327301,1.637299c-0.267296,0.131264 -0.45768,0.410561 -0.45768,0.728806c0,0.116684 0.029106,0.234108 0.073402,0.33371c0.286263,0.830025 -0.184471,1.730293 -2.532196,2.2472c-3.480103,0.764267 -5.678001,4.355698 -6.933807,5.548599c-1.477196,1.402496 -5.646294,2.261597 -5.018997,1.426895c0.490891,-0.651955 2.366699,-2.690994 3.508598,-4.893799c1.020706,-1.969101 1.929604,-2.528603 3.182205,-4.408195c0.36692,-0.548225 1.791298,-2.484406 2.206299,-4.017303c0.464966,-1.492401 0.3078,-3.370399 0.486519,-4.140701c0.25621,-1.114998 1.306999,-3.531395 1.386101,-4.894997c0.045799,-0.77343 -3.222404,1.101501 -4.772697,1.101501c-1.549606,0 -3.060402,-0.930603 -4.445503,-0.997086c-1.714798,-0.0784 -2.8162,1.324203 -4.367798,1.078705c-0.884682,-0.142365 -1.631203,-0.923073 -3.179001,-0.980652c-2.204803,-0.080002 -4.897602,1.226097 -9.956303,1.063202c-4.974701,-0.162613 -9.571198,-6.288399 -10.197998,-7.262703c-0.735439,-1.141998 -1.632801,-1.141998 -2.611202,-0.243912c-0.98,0.8974 -2.185799,0.192001 -2.529598,-0.411209c-0.652599,-1.140301 -2.397099,-4.4772 -5.100101,-5.177898c-3.737299,-0.967609 -5.629499,2.069099 -5.383799,4.487103c0.24925,2.452797 1.8346,3.141098 2.570099,4.4459c0.73382,1.304497 1.109301,2.144997 2.4916,2.721596c0.979031,0.411201 1.343801,1.013802 1.0527,1.819504c-0.25622,0.698761 -1.2754,0.858528 -1.945299,0.891724c-1.423401,0.068001 -2.4214,-0.317596 -3.149601,-0.783218c-0.847109,-0.540939 -1.535099,-1.289993 -2.2738,-2.562195c-0.855619,-1.404205 -2.201599,-2.016205 -3.7705,-2.016205c-0.747509,0 -1.447199,0.197342 -2.068798,0.517448c-2.457901,1.281204 -5.384401,2.036507 -8.535301,2.036507l-3.5529,0.002998c6.8135,20.208 25.920999,34.761002 48.429002,34.761002c17.978996,0 33.787994,-9.284401 42.894997,-23.322998" id="path6"/>
  <path fill="#ffffff" id="path8" d="m106.150391,77.382813c-1.43,0 -2.587891,1.157028 -2.587891,2.582031c0,1.424004 1.15789,2.582031 2.587891,2.582031c1.419998,0 2.580078,-1.158028 2.580078,-2.582031c0,-1.425003 -1.16008,-2.582031 -2.580078,-2.582031zm0,0.457031c1.169998,0 2.119141,0.95195 2.119141,2.126953c0,1.171997 -0.949142,2.119141 -2.119141,2.119141c-1.18,0 -2.130859,-0.947144 -2.130859,-2.119141c0,-1.175003 0.950859,-2.126953 2.130859,-2.126953zm-0.873047,0.804688l0,2.634766l0.398438,0l0,-1.140625l0.460938,0l0.695313,1.140625l0.447266,0l-0.751953,-1.162109c0.391113,-0.047699 0.685547,-0.251274 0.685547,-0.720703c0,-0.524742 -0.307777,-0.751953 -0.929688,-0.751953l-1.005859,0zm0.398438,0.337891l0.544922,0c0.276131,0 0.574219,0.06131 0.574219,0.386719c0,0.403351 -0.299713,0.431641 -0.640625,0.431641l-0.478516,0l0,-0.818359z"/>
  <path fill="#100f0d" d="m55.096001,4c-28.219,0 -51.096001,22.875 -51.096001,51.096001c0,5.711998 0.93668,11.204002 2.666,16.332001l3.5528,0c3.150801,0 6.0772,-0.759003 8.5352,-2.037003c0.621,-0.32 1.323,-0.515999 2.07,-0.515999c1.569,0 2.914001,0.610001 3.77,2.014c0.738001,1.273003 1.426001,2.022003 2.273001,2.559998c0.727999,0.467003 1.726999,0.854004 3.150999,0.787003c0.67,-0.032997 1.689001,-0.194 1.945,-0.893997c0.290998,-0.804001 -0.073999,-1.410004 -1.052999,-1.817001c-1.382,-0.577003 -1.757999,-1.421997 -2.492001,-2.725998c-0.734999,-1.305 -2.320999,-1.993004 -2.57,-4.445c-0.246,-2.417004 1.647001,-5.454002 5.384001,-4.485004c2.702997,0.699001 4.447001,4.038002 5.1,5.179996c0.343998,0.601006 1.549,1.304001 2.528999,0.410004c0.979,-0.899994 1.875999,-0.899002 2.612,0.244003c0.626999,0.973999 5.223999,7.100998 10.199001,7.262001c5.058998,0.161995 7.75,-1.144005 9.954998,-1.063004c1.548,0.058998 2.295002,0.835999 3.18,0.979004c1.551003,0.244995 2.652,-1.158005 4.367004,-1.076004c1.384995,0.068001 2.895996,0.994003 4.445,0.994003c1.549995,0 4.819,-1.870003 4.773994,-1.100006c-0.079994,1.364006 -1.130997,3.781006 -1.386993,4.893005c-0.179001,0.772995 -0.021004,2.648994 -0.486,4.143997c-0.415001,1.529999 -1.839005,3.467003 -2.206001,4.017998c-1.252007,1.878006 -2.162003,2.438004 -3.183006,4.406006c-1.141998,2.202995 -3.016998,4.240997 -3.507996,4.894997c-0.626999,0.834 3.542,-0.027 5.019997,-1.428001c1.255005,-1.194 3.453003,-4.784996 6.933006,-5.548996c2.348,-0.514999 2.817993,-1.416 2.530998,-2.248001c-0.043999,-0.096001 -0.071999,-0.217003 -0.071999,-0.332001c0,-0.318001 0.189995,-0.596001 0.456993,-0.729996c2.425003,-1.009003 5.712006,-1.635002 9.326004,-1.635002c2.113998,0 4.203003,0.280998 6.171997,0.736c5.188004,-7.998001 8.200005,-17.531998 8.200005,-27.773003c0,-28.221001 -22.874001,-51.096001 -51.094002,-51.096001z" id="path12"/>
  <path fill="#100f0d" d="m66.346001,78.18c0.261955,0.254272 0.715851,1.119797 0.160744,2.212303c-0.310059,0.58046 -0.643784,0.986969 -1.241608,1.464897c-0.718674,0.577286 -2.124096,1.241196 -4.050495,0.020203c-1.035,-0.657623 -1.099201,-0.878777 -2.528999,-0.693985c-1.021801,0.13443 -1.4282,-0.896507 -1.061302,-1.7556c0.367561,-0.854401 1.877399,-1.546799 3.753201,-0.44635c0.844521,0.495674 2.161102,1.544304 3.314102,0.615601c0.476959,-0.38311 0.763222,-0.637383 1.425896,-1.4058c0.031006,-0.031601 0.072708,-0.051201 0.119537,-0.051201c0.041794,0 0.079796,0.016403 0.108826,0.039803" id="path16"/>
  <path fill="#cd1e25" d="m62.772999,14.535c-1.168999,0.045 -2.349998,0.215 -3.501999,0.51c-1.695999,0.434999 -5.014,2.161001 -11.167,0.775c-10.651001,-2.3983 -12.229,2.935001 -12.838001,5.256001c-0.612999,2.324999 -2.080002,8.927999 -2.080002,8.927999c-0.489998,2.690001 -1.129997,7.365 15.406002,10.516001c7.705002,1.466 8.095001,3.456001 8.435001,4.888c0.612,2.565998 1.591,4.035999 2.691998,4.77c1.100002,0.736 -0.000999,1.343998 -1.223,1.467999c-3.280998,0.341 -15.406998,-3.139 -22.579998,-7.214001c-5.870001,-3.587997 -5.967001,-6.816998 -4.623001,-9.556999c-8.866001,-0.959 -15.521,0.832001 -16.726999,5.028999c-2.0699,7.202999 15.834999,19.505001 36.224997,25.68c21.399006,6.477997 43.409,1.956001 45.855007,-11.493999c1.109993,-6.110001 -4.036003,-10.630001 -12.716003,-12.588001c-0.505997,1.696999 -1.224998,3.866001 -4.419998,5.506001c-0.465004,0.238998 -0.642006,-0.151001 -0.428001,-0.518002c1.208,-2.052998 1.421997,-2.566998 1.773003,-3.376999c0.491997,-1.183998 0.747993,-2.872002 -0.228004,-6.383999c-1.921997,-6.916 -5.931,-16.158003 -8.844002,-19.157001c-2.108994,-2.169999 -5.501991,-3.169999 -9.009998,-3.037l0,0.000001zm0.963001,2.368999c0.097,0 0.193001,0.000999 0.291,0.002001c3.275002,0.073999 5.897995,1.375999 5.860001,2.906c-0.040001,1.532999 -2.724007,2.713999 -6.000004,2.640999c-1.059998,-0.025 -2.054996,-0.178999 -2.911999,-0.425999c-0.100998,-0.026001 -0.174,-0.112 -0.174,-0.215c0,-0.102001 0.071999,-0.189001 0.175999,-0.214001c2.042,-0.473 3.422997,-1.246 3.325996,-1.976999c-0.127991,-0.968 -2.801994,-1.493 -5.970993,-1.176001c-0.347,0.037001 -0.686001,0.082001 -1.014,0.132999c-0.008003,0 -0.016003,0.002001 -0.025002,0.002001c-0.091999,0 -0.166,-0.071001 -0.166,-0.154001c0,-0.063 0.037998,-0.118 0.094002,-0.142998c1.143997,-0.604 2.850998,-1.084 4.803997,-1.283001c0.587002,-0.060001 1.16,-0.093 1.711002,-0.096001zm-24.285,6.155001c0.522999,-0.021 1.006001,0.257 1.237,0.542999c0.557999,0.695002 1.751999,1.834002 3.299999,1.793001c1.549,-0.042 3.335999,-0.366001 5.827999,-0.366001c2.526001,0 4.226002,0.944 4.320999,1.754002c0.082001,0.691999 -0.205997,1.344 -3.017998,1.546999c-5.902,0.427 -6.514999,1.063999 -7.621002,2.242001c-1.558998,1.660002 -3.611,-2.154001 -3.611,-2.154001c-1.231998,-0.259998 -2.725998,-2.247 -1.919998,-4.101999c0.396999,-0.917 0.960999,-1.237 1.484001,-1.257z" id="path18"/>
 </g>
</svg>