<?xml version="1.0" encoding="UTF-8" standalone="yes"?>
<svg xmlns="http://www.w3.org/2000/svg" xmlns:xlink="http://www.w3.org/1999/xlink" width="80px" height="80px" viewBox="0 0 60 60" version="1.1">
  <g id="surface1">
    <path style=" stroke:none;fill-rule:nonzero;fill:rgb(100%,100%,100%);fill-opacity:1;" d="M 55.285156 46.386719 C 54.128906 46.121094 52.898438 45.953125 51.65625 45.953125 C 49.53125 45.953125 47.59375 46.324219 46.167969 46.917969 C 46.011719 46.996094 45.898438 47.160156 45.898438 47.347656 C 45.898438 47.414062 45.917969 47.484375 45.941406 47.542969 C 46.113281 48.03125 45.835938 48.5625 44.453125 48.863281 C 42.40625 49.3125 41.113281 51.425781 40.375 52.128906 C 39.503906 52.953125 37.054688 53.460938 37.421875 52.96875 C 37.710938 52.585938 38.816406 51.386719 39.484375 50.089844 C 40.085938 48.929688 40.621094 48.601562 41.359375 47.496094 C 41.574219 47.175781 42.410156 46.035156 42.65625 45.132812 C 42.929688 44.253906 42.835938 43.152344 42.941406 42.699219 C 43.09375 42.042969 43.710938 40.621094 43.757812 39.816406 C 43.785156 39.363281 41.863281 40.464844 40.949219 40.464844 C 40.039062 40.464844 39.148438 39.917969 38.335938 39.878906 C 37.328125 39.832031 36.679688 40.660156 35.765625 40.515625 C 35.246094 40.429688 34.804688 39.972656 33.894531 39.9375 C 32.597656 39.890625 31.015625 40.660156 28.039062 40.5625 C 25.113281 40.46875 22.410156 36.863281 22.039062 36.289062 C 21.609375 35.617188 21.078125 35.617188 20.503906 36.148438 C 19.929688 36.675781 19.21875 36.261719 19.015625 35.90625 C 18.632812 35.234375 17.605469 33.269531 16.015625 32.859375 C 13.816406 32.289062 12.703125 34.078125 12.847656 35.5 C 12.996094 36.941406 13.929688 37.347656 14.359375 38.113281 C 14.792969 38.882812 15.011719 39.375 15.828125 39.714844 C 16.402344 39.957031 16.617188 40.3125 16.445312 40.785156 C 16.296875 41.195312 15.695312 41.289062 15.300781 41.308594 C 14.464844 41.351562 13.878906 41.121094 13.449219 40.847656 C 12.949219 40.53125 12.546875 40.089844 12.113281 39.34375 C 11.609375 38.515625 10.816406 38.15625 9.894531 38.15625 C 9.453125 38.15625 9.042969 38.273438 8.675781 38.460938 C 7.230469 39.214844 5.507812 39.65625 3.65625 39.65625 L 1.566406 39.660156 C 5.574219 51.546875 16.8125 60.109375 30.054688 60.109375 C 40.628906 60.109375 49.929688 54.644531 55.285156 46.386719 "/>
    <path style=" stroke:none;fill-rule:nonzero;fill:rgb(100%,100%,100%);fill-opacity:1;" d="M 60.089844 43.167969 C 59.246094 43.167969 58.566406 43.847656 58.566406 44.683594 C 58.566406 45.523438 59.246094 46.203125 60.089844 46.203125 C 60.921875 46.203125 61.605469 45.523438 61.605469 44.683594 C 61.605469 43.847656 60.921875 43.167969 60.089844 43.167969 Z M 60.089844 43.433594 C 60.777344 43.433594 61.335938 43.996094 61.335938 44.6875 C 61.335938 45.375 60.777344 45.933594 60.089844 45.933594 C 59.394531 45.933594 58.835938 45.375 58.835938 44.6875 C 58.835938 43.996094 59.394531 43.433594 60.089844 43.433594 Z M 59.574219 43.910156 L 59.574219 45.457031 L 59.808594 45.457031 L 59.808594 44.789062 L 60.082031 44.789062 L 60.488281 45.457031 L 60.753906 45.457031 L 60.308594 44.773438 C 60.539062 44.746094 60.714844 44.628906 60.714844 44.351562 C 60.714844 44.042969 60.53125 43.910156 60.167969 43.910156 Z M 59.808594 44.105469 L 60.128906 44.105469 C 60.292969 44.105469 60.46875 44.144531 60.46875 44.335938 C 60.46875 44.570312 60.292969 44.589844 60.089844 44.589844 L 59.808594 44.589844 Z M 59.808594 44.105469 "/>
    <path style=" stroke:none;fill-rule:nonzero;fill:rgb(6.27451%,5.882353%,5.098039%);fill-opacity:1;" d="M 30.054688 0 C 13.457031 0 0 13.457031 0 30.054688 C 0 33.417969 0.550781 36.648438 1.566406 39.664062 L 3.65625 39.664062 C 5.511719 39.664062 7.234375 39.21875 8.679688 38.464844 C 9.042969 38.277344 9.457031 38.160156 9.894531 38.160156 C 10.820312 38.160156 11.609375 38.519531 12.113281 39.347656 C 12.546875 40.09375 12.953125 40.535156 13.453125 40.851562 C 13.878906 41.128906 14.46875 41.355469 15.304688 41.316406 C 15.699219 41.296875 16.296875 41.203125 16.449219 40.789062 C 16.621094 40.316406 16.40625 39.960938 15.828125 39.71875 C 15.015625 39.382812 14.796875 38.882812 14.363281 38.117188 C 13.929688 37.347656 13 36.945312 12.851562 35.503906 C 12.707031 34.082031 13.820312 32.292969 16.019531 32.863281 C 17.609375 33.273438 18.632812 35.238281 19.019531 35.910156 C 19.222656 36.265625 19.929688 36.679688 20.507812 36.152344 C 21.082031 35.621094 21.609375 35.625 22.042969 36.296875 C 22.410156 36.867188 25.117188 40.472656 28.042969 40.566406 C 31.019531 40.664062 32.601562 39.894531 33.898438 39.941406 C 34.808594 39.976562 35.25 40.433594 35.769531 40.519531 C 36.679688 40.664062 37.328125 39.835938 38.335938 39.886719 C 39.152344 39.925781 40.042969 40.46875 40.953125 40.46875 C 41.863281 40.46875 43.785156 39.371094 43.761719 39.824219 C 43.714844 40.625 43.09375 42.046875 42.945312 42.703125 C 42.839844 43.15625 42.933594 44.257812 42.660156 45.140625 C 42.414062 46.039062 41.578125 47.179688 41.359375 47.503906 C 40.625 48.605469 40.089844 48.9375 39.488281 50.09375 C 38.816406 51.390625 37.714844 52.589844 37.425781 52.972656 C 37.054688 53.464844 39.507812 52.957031 40.378906 52.132812 C 41.117188 51.429688 42.410156 49.320312 44.457031 48.871094 C 45.835938 48.566406 46.113281 48.035156 45.945312 47.546875 C 45.917969 47.492188 45.902344 47.417969 45.902344 47.351562 C 45.902344 47.164062 46.015625 47 46.171875 46.921875 C 47.597656 46.328125 49.53125 45.960938 51.65625 45.960938 C 52.902344 45.960938 54.128906 46.125 55.289062 46.394531 C 58.339844 41.6875 60.113281 36.082031 60.113281 30.054688 C 60.113281 13.457031 46.65625 0 30.054688 0 Z M 30.054688 0 "/>
    <path style=" stroke:none;fill-rule:nonzero;fill:rgb(6.27451%,5.882353%,5.098039%);fill-opacity:1;" d="M 36.675781 43.636719 C 36.828125 43.785156 37.09375 44.292969 36.769531 44.9375 C 36.585938 45.277344 36.390625 45.515625 36.039062 45.796875 C 35.617188 46.136719 34.789062 46.527344 33.65625 45.808594 C 33.046875 45.421875 33.007812 45.292969 32.167969 45.402344 C 31.566406 45.480469 31.328125 44.875 31.542969 44.371094 C 31.761719 43.867188 32.648438 43.460938 33.75 44.105469 C 34.25 44.398438 35.023438 45.015625 35.699219 44.46875 C 35.980469 44.242188 36.148438 44.09375 36.539062 43.640625 C 36.558594 43.625 36.582031 43.613281 36.609375 43.613281 C 36.632812 43.613281 36.65625 43.621094 36.675781 43.636719 "/>
    <path style=" stroke:none;fill-rule:nonzero;fill:rgb(80.392157%,11.764706%,14.509804%);fill-opacity:1;" d="M 34.574219 6.195312 C 33.882812 6.222656 33.191406 6.324219 32.511719 6.496094 C 31.515625 6.753906 29.5625 7.769531 25.945312 6.953125 C 19.679688 5.542969 18.75 8.679688 18.390625 10.042969 C 18.03125 11.414062 17.167969 15.296875 17.167969 15.296875 C 16.878906 16.878906 16.503906 19.628906 26.230469 21.480469 C 30.761719 22.34375 30.992188 23.515625 31.191406 24.359375 C 31.550781 25.867188 32.128906 26.730469 32.777344 27.164062 C 33.421875 27.597656 32.773438 27.953125 32.054688 28.027344 C 30.125 28.226562 22.992188 26.179688 18.773438 23.785156 C 15.320312 21.671875 15.265625 19.773438 16.054688 18.160156 C 10.839844 17.597656 6.925781 18.652344 6.214844 21.121094 C 4.996094 25.355469 15.53125 32.59375 27.523438 36.226562 C 40.113281 40.035156 53.058594 37.375 54.496094 29.464844 C 55.152344 25.871094 52.125 23.210938 47.019531 22.058594 C 46.71875 23.058594 46.296875 24.335938 44.417969 25.296875 C 44.144531 25.4375 44.039062 25.210938 44.164062 24.992188 C 44.875 23.785156 45.003906 23.484375 45.207031 23.007812 C 45.5 22.3125 45.648438 21.316406 45.074219 19.253906 C 43.945312 15.183594 41.585938 9.746094 39.871094 7.984375 C 38.632812 6.707031 36.636719 6.117188 34.574219 6.195312 Z M 35.140625 7.589844 C 35.195312 7.589844 35.253906 7.589844 35.308594 7.589844 C 37.238281 7.636719 38.78125 8.402344 38.757812 9.300781 C 38.734375 10.203125 37.15625 10.898438 35.226562 10.855469 C 34.605469 10.839844 34.019531 10.75 33.515625 10.605469 C 33.457031 10.589844 33.414062 10.539062 33.414062 10.476562 C 33.414062 10.417969 33.453125 10.367188 33.515625 10.351562 C 34.71875 10.074219 35.53125 9.617188 35.472656 9.1875 C 35.398438 8.621094 33.824219 8.3125 31.960938 8.496094 C 31.757812 8.519531 31.554688 8.546875 31.363281 8.574219 C 31.359375 8.574219 31.355469 8.578125 31.347656 8.578125 C 31.292969 8.578125 31.25 8.535156 31.25 8.484375 C 31.25 8.449219 31.273438 8.417969 31.304688 8.402344 C 31.980469 8.046875 32.984375 7.765625 34.132812 7.648438 C 34.476562 7.613281 34.816406 7.59375 35.140625 7.589844 Z M 20.855469 11.210938 C 21.160156 11.199219 21.445312 11.363281 21.582031 11.53125 C 21.910156 11.9375 22.613281 12.609375 23.523438 12.585938 C 24.433594 12.5625 25.484375 12.371094 26.949219 12.371094 C 28.4375 12.371094 29.4375 12.925781 29.492188 13.402344 C 29.539062 13.808594 29.371094 14.191406 27.71875 14.3125 C 24.246094 14.5625 23.882812 14.9375 23.234375 15.628906 C 22.316406 16.605469 21.109375 14.363281 21.109375 14.363281 C 20.386719 14.210938 19.507812 13.042969 19.980469 11.949219 C 20.214844 11.410156 20.546875 11.222656 20.855469 11.210938 Z M 20.855469 11.210938 "/>
  </g>
</svg>