<?xml version="1.0" encoding="UTF-8"?>
<!-- Generator: Adobe Illustrator 19.0.0, SVG Export Plug-In . SVG Version: 6.00 Build 0)  -->
<svg version="1.1" id="Capa_1" xmlns="http://www.w3.org/2000/svg" xmlns:xlink="http://www.w3.org/1999/xlink" x="0px" y="0px" width="507.1px" height="507.1px" viewBox="-385 147.9 507.1 507.1" style="enable-background:new -385 147.9 507.1 507.1;" xml:space="preserve">
<style type="text/css">
	.st0{fill:#002e46;}
	.st1{fill:#002e46;}
	.st2{fill:#002e46;}
	.st3{fill:#002e46;}
	.st4{fill:#FFFFFF;}
	.st5{opacity:0.5;}
	.st6{fill:#FFFFFF;}
	.st7{fill:#002e46;}
	.st8{opacity:0.7;}
</style>
<g>
	<g>
		<polygon class="st0" points="103.5,306.4 103.5,317.1 97.5,321.8 86.8,319.2 78.9,316.9 71.9,311.3 71.9,308 71.4,305.5     79.2,305.5 93.6,306.4   "/>
	</g>
	<g>
		<polygon class="st0" points="92.8,289.3 67.2,293.5 64,297.8 68,301.1 87.4,305.5 107.8,305.5 113,302.6 116.5,297.4 114.9,291.8     109.3,290.4 101.5,288.7   "/>
	</g>
	<g>
		<polygon class="st0" points="96.1,275.5 78.4,282 77.5,287 88.1,287 97.8,287 101.5,285.2 100.6,280   "/>
	</g>
	<g>
		<g>
			<g>
				<defs>
					<path id="SVGID_1_" d="M122.1,296.9c0-8.7-9.9-11.7-16.3-12.7c0.4-2.6,0.4-5.7-1.1-8.4c-1.2-2.1-3.9-4.8-9.5-5.2       c-0.1,0-0.2,0-0.3,0c-14.7,0-26.9,12.5-30.8,17.1H22.2c-9.2-9.5-20-17.4-32.4-23.6c-20.4-10.1-44.5-15.3-71.6-15.3       c0,0,0,0-0.1,0l-88,1.4c-14.9-21.1-31.5-22.4-45.9-20.8c-3.8,0.4-9.2,2.4-15.3,5.2c-3.1-3-9.7-6.8-23.4-6.8       c-18.8,0-41.2,23.3-46.3,28.7c-31.4,4.7-54.3,15.8-68.2,33.3c-15.6,19.6-15.9,42.4-16,53.4c0,2.1,0,3.8-0.2,5       c0,0.1,0,0.3,0,0.4c0,1.7,0.7,174.8,0.7,185.3c0,0.7,0,1.3,0,2c-0.1,6.4-0.2,14.4,5.8,20.4c5,5.1,13.2,7.5,25.1,7.5       c12.1,0,20.8-3,26-8.9c4.7-5.4,4.8-11.5,4.7-13.3l7.3-82c1.1-13.2,5.5-22.3,13.1-27.2c6-3.8,13.6-4.9,21.5-4.5v81.8       c-0.1,1.5-0.4,11.4,4.3,22c4.6,10.2,14.8,22.8,37.6,25.9c0.9,1.3,2,2.6,3.2,3.8c10.1,10.3,27.8,15.5,52.5,15.5       c23.8,0,40.8-5.7,50.5-17.1c9.4-10.9,8.4-23.2,8.2-25.5v-54.9c3.6,0.7,9.2,1.5,16.5,1.9v39c0,1,0,9.6,5.6,18.5       c5.2,8.3,16.4,18.5,40.2,20.2c10.6,9.9,27.7,14.9,51,14.9c24.5,0,41.8-5.6,51.4-16.7c8.3-9.6,7.8-20,7.6-22V415.4       c0-0.9-0.3-1.7-0.8-2.4c12.8-34.7,9.2-74.1-9.3-105h26.7c3.3,4.6,12.6,15.4,28.6,16.2c0.1,0,0.1,0,0.2,0c3.2,0,12.9,0,15.5-6.5       c1.1-2.8,0.4-5.8-0.9-8.2C114.1,308.1,122.1,304.7,122.1,296.9z M97.6,279.8c0.5,0.8,0.4,2.4,0,3.9c-4.6,0-11.9,0.2-19.3,1.6       c4.5-3.4,10.3-6.6,16.4-6.6C95.7,278.8,97.2,279,97.6,279.8z M56.5,295.8c-0.4,0.9-0.5,2-0.1,3c0.1,0.4,0.3,0.8,0.5,1.1H32.5       c-1-1.4-2.1-2.8-3.2-4.1H56.5z M93.4,316.1c-8.5-0.5-14.6-4.5-18.4-8.2c2,0.3,4.3,0.7,6.8,1c6.5,0.8,12.8,1.2,16.7,1.4       c1.6,1.7,2.7,3.7,2.7,4.5C100.9,314.9,99.2,316.1,93.4,316.1z M102.2,302.2c-1.2,0-9.6-0.3-18.3-1.3c-9.4-1.1-14.4-2.4-17-3.5       c10-5.6,28.2-6,35.2-5.6c0.1,0,0.1,0,0.2,0c5.5,0.5,11.9,2.4,11.9,5C114,299.6,107.6,301.6,102.2,302.2z"/>
				</defs>
				<clipPath id="SVGID_2_">
					<use xlink:href="#SVGID_1_" style="overflow:visible;"/>
				</clipPath>
				<g style="clip-path:url(#SVGID_2_);">
					<image style="overflow:visible;" width="509" height="12" transform="matrix(1 0 0 1 -386 291)">
					</image>
				</g>
				<g style="clip-path:url(#SVGID_2_);">
					<image style="overflow:visible;" width="509" height="10" transform="matrix(1 0 0 1 -386 307)">
					</image>
				</g>
				<g style="clip-path:url(#SVGID_2_);">
					<image style="overflow:visible;" width="509" height="5" transform="matrix(1 0 0 1 -386 295)">
					</image>
				</g>
				<g style="clip-path:url(#SVGID_2_);">
					<image style="overflow:visible;" width="509" height="8" transform="matrix(1 0 0 1 -386 278)">
					</image>
				</g>
				<g style="clip-path:url(#SVGID_2_);">
					<image style="overflow:visible;" width="509" height="351" transform="matrix(1 0 0 1 -386 227)">
					</image>
				</g>
			</g>
		</g>
		<g>
			<g>
				<path class="st0" d="M-266.4,538.4c0,0-10.6-1.3-10.2-20.2c2.3-18.3,8.3-28.6,12.7-28.6c4.4,0,8.2,14.4,8.2,14.4      C-265.2,506.5-269.5,531.7-266.4,538.4z"/>
			</g>
			<g>
				<path class="st0" d="M-255.8,543.7c0,0-9.4,0-9.2-14.2c1.6-14.8,7.1-22.8,9.2-22.8s6.5,4.4,9.6,23.5      C-246.6,543.8-255.8,543.7-255.8,543.7z"/>
			</g>
			<g>
				<path class="st1" d="M-264.5,541.2l-2.4-0.3c-0.5-0.1-12.4-1.8-12-22.7l0-0.1c2.3-18.1,8.4-31.3,14.7-31.3c5.2,0,9,12.4,10,16.2      l0.4,1.3l-1.3,0.3c-2.4,0.6-4.8,3.2-6.8,7.4c-4.3,9-5.6,22.6-3.5,27L-264.5,541.2z M-276.1,518.4c-0.3,12.9,4.5,17.5,7.4,19.1      c-1.2-6.7,0.6-18.6,4.4-26.6c2.1-4.3,4.5-7.2,7.2-8.4c-1.9-6.5-5-13-7-13C-267.7,489.5-273.8,499.5-276.1,518.4z"/>
			</g>
			<g>
				<path class="st1" d="M-255.5,546L-255.5,546L-255.5,546c-0.2,0-3.8,0-6.9-3.2c-2.8-2.9-4.2-7.3-4.1-13.1l0-0.1      c1.7-15.6,7.6-25.2,11-25.2c1.7,0,7.5,1.9,11.4,25.9l0,0.1l0,0.1C-244.5,545.8-255,546-255.5,546z M-263.8,529.8      c-0.1,5,1,8.8,3.3,11.1c2.3,2.3,4.9,2.4,5,2.4l0,1.3v-1.3c0.3,0,8.3-0.1,8.7-12.8c-3.1-19.2-7.6-23.3-8.7-23.5      C-256.9,507.6-262.2,515.2-263.8,529.8z"/>
			</g>
			<g>
				<path class="st0" d="M-254.3,546.1c0,0,7.4-3.5,9.4-10.9c-0.6,9.7,2.5,14.8,2.5,14.8S-249.6,548.8-254.3,546.1z"/>
			</g>
			<g>
				<path class="st0" d="M-224.8,561.3c0,0-16-1.6-13.9-20.9c4.7-19.2,13.3-25.6,18.1-24.5C-228,532.7-232.3,551.3-224.8,561.3z"/>
			</g>
			<g>
				<path class="st0" d="M-204,567c0,0-12.8,5.1-19.5-6.2c-1.5-2.5-1.7-6.5-2.6-10.9c-1.6-23.2,13.6-48.9,20.2-41.4      c6.6,7.5,6.9,11.2,8.5,15C-201.7,528-216.7,549.2-204,567z"/>
			</g>
			<g>
				<path class="st0" d="M-196.3,568.2c0,0-13.2-1.3-11.2-19.5c3.8-18.5,10.9-24.1,12.8-24c1.9,0.1,8,4,10.7,24.5      C-182.1,567.7-196.3,568.2-196.3,568.2z"/>
			</g>
			<g>
				<path class="st1" d="M-222.5,564.1l-3.1-0.3c-0.3,0-7.2-0.8-11.8-6.6c-3.4-4.2-4.7-9.8-4-16.8l0-0.2      c4.5-18.5,12.8-26.8,19.1-26.8c0.5,0,1,0.1,1.5,0.2l1.6,0.4l-0.7,1.5c-9.3,20.8-10.9,37.7-4.5,46.2L-222.5,564.1z M-238.7,540.8      c-0.7,6.2,0.5,11.1,3.4,14.7c2.2,2.7,4.9,4.1,7,4.8c-6.3-12.5,0-32.1,5.2-44.2C-227,516.9-234.3,522.6-238.7,540.8z"/>
			</g>
			<g>
				<path class="st1" d="M-208.8,572.7c-5.8,0-15.9-2.7-19.4-20.6l0-0.2c-1.2-17.1,5.8-35.7,13.3-43.7c2.4-2.6,4.8-3.9,6.9-3.9      c1.5,0,2.9,0.7,4,1.9c5.8,6.7,7.2,10.6,8.5,14c0.3,0.9,0.6,1.7,0.9,2.5l0.3,0.8l-0.6,0.6c-5.8,6.2-19.6,27.8-7,45.4l1,1.4      l-1.6,0.6C-202.6,571.7-205.2,572.7-208.8,572.7z M-225.5,551.7c2.9,15.1,10.7,18.3,16.7,18.3c1.5,0,2.8-0.2,3.7-0.4      c-11.4-18.2,1.4-39.4,7.7-46.6c-0.2-0.6-0.5-1.2-0.7-1.8c-1.2-3.2-2.5-6.9-8-13.2c-0.6-0.7-1.2-1-1.9-1c-1.4,0-3.1,1.1-5,3.1      C-219.8,517.5-226.6,535.5-225.5,551.7z"/>
			</g>
			<g>
				<path class="st1" d="M-195.5,571.1L-195.5,571.1c-0.3,0-5.6-0.6-9.4-5.3c-3.2-3.9-4.4-9.5-3.6-16.6l0-0.1      c4.1-19.8,11.6-26.2,14.7-26.2l0.1,0c3.3,0.1,9.8,5.9,12.5,26.8c0.7,7.1-0.7,12.5-4,16.3C-189.4,570.8-195.2,571.1-195.5,571.1      L-195.5,571.1z M-205.9,549.6c-0.7,6.3,0.3,11.1,3,14.5c2.8,3.5,6.8,4.2,7.4,4.3c0.7-0.1,5.1-0.6,8.2-4.2      c2.8-3.2,3.9-8,3.3-14.2c-2.7-20.1-8.5-24.4-9.9-24.4C-195,525.6-202,530.4-205.9,549.6z"/>
			</g>
			<g>
				<path class="st2" d="M-94.4,538.5c0,0-10.6-1.3-10.2-20.2c2.3-18.3,8.3-28.6,12.7-28.6c4.4,0,8.2,14.4,8.2,14.4      C-93.2,506.6-97.5,531.8-94.4,538.5z"/>
			</g>
			<g>
				<path class="st1" d="M-92.2,541.5l-2.4-0.3c-0.5-0.1-12.4-1.8-12-22.7l0-0.1c2.3-18.1,8.5-31.3,14.7-31.3c5.2,0,9,12.4,10,16.2      l0.4,1.3l-1.3,0.3c-2.4,0.6-4.8,3.2-6.8,7.4c-4.3,9-5.6,22.6-3.6,27L-92.2,541.5z M-103.9,518.7c-0.3,13,4.5,17.5,7.4,19.1      c-1.2-6.7,0.6-18.6,4.4-26.6c2.1-4.3,4.5-7.2,7.3-8.4c-1.9-6.5-5-13-7-13C-95.4,489.8-101.5,499.8-103.9,518.7z"/>
			</g>
			<g>
				<path class="st2" d="M-83.8,546c0,0-10.3,0-10-15.5c1.8-16.2,7.8-25,10-25c2.2,0,7.1,4.9,10.5,25.7      C-73.8,546.1-83.8,546-83.8,546z"/>
			</g>
			<g>
				<path class="st1" d="M-83.8,547.3L-83.8,547.3L-83.8,547.3c-0.2,0-4,0-7.1-3.3c-2.9-3-4.3-7.5-4.2-13.6l0-0.1      c1.7-16,7.9-26.1,11.4-26.1c1.7,0,7.7,1.9,11.8,26.8l0,0.1l0,0.1C-72.5,547.1-83.3,547.3-83.8,547.3z M-92.5,530.5      c-0.1,5.2,1.1,9.1,3.4,11.6c2.4,2.4,5.1,2.5,5.3,2.5l0,1.3v-1.3c0.4,0,8.7-0.2,9.1-13.3c-3.7-22.4-8.7-24.3-9.1-24.4      C-85.4,507.4-90.8,515.3-92.5,530.5z"/>
			</g>
			<g>
				<path class="st2" d="M-84.2,547.3c0,0,10.7-3.7,12.3-13.9c0.6,13.1,4.2,17.3,4.2,17.3S-77.6,550.2-84.2,547.3z"/>
			</g>
			<g>
				<path class="st0" d="M-52.9,558.4c0,0-16-1.3-14.3-20.6c4.3-19.3,12.8-25.9,17.7-24.8C-56.7,529.8-60.6,548.6-52.9,558.4z"/>
			</g>
			<g>
				<path class="st1" d="M-47.3,562.3l-3.1-0.1c-0.3,0-7.2-0.3-12.3-5.8c-3.6-4-5.3-9.5-5-16.6l0-0.2c3.4-19.4,11.4-28.1,17.8-28.1      c0.4,0,0.7,0,1.1,0.1l1.6,0.3l-0.6,1.5c-8,21.5-8.5,38.4-1.6,46.5L-47.3,562.3z M-65,540c-0.3,6.2,1.2,11.1,4.3,14.5      c2.3,2.5,5.2,3.8,7.3,4.4c-7.1-12.1-2-32.1,2.4-44.5C-55.3,515.4-61.9,522.7-65,540z"/>
			</g>
			<g>
				<path class="st0" d="M-32,564.4c0,0-17.5,6.7-22.1-17.1c-1.6-23.2,13.6-48.9,20.2-41.4c6.6,7.5,6.9,11.2,8.5,15      C-29.7,525.4-44.7,546.6-32,564.4z"/>
			</g>
			<g>
				<path class="st1" d="M-37.4,567.2c-5.5,0-15.1-2.5-18.3-19.4l0-0.2c-1.1-16.2,5.5-33.7,12.6-41.3c2.3-2.5,4.5-3.7,6.6-3.7      c1.4,0,2.8,0.6,3.8,1.8c5.5,6.3,6.8,10,8,13.3c0.3,0.8,0.6,1.6,0.9,2.3l0.3,0.8l-0.6,0.6c-5.5,5.8-18.4,26.1-6.6,42.7l1,1.4      l-1.6,0.6C-31.5,566.2-34,567.2-37.4,567.2z M-53.1,547.3c2.8,14.2,10,17.2,15.7,17.2c1.3,0,2.5-0.2,3.4-0.4      c-10.6-17.1,1.4-37.1,7.3-43.9c-0.2-0.6-0.4-1.1-0.6-1.7c-1.1-3-2.3-6.5-7.5-12.4c-0.5-0.6-1.1-0.9-1.8-0.9      c-1.3,0-2.9,1-4.6,2.9C-47.7,515.2-54.1,532.1-53.1,547.3z"/>
			</g>
			<g>
				<path class="st0" d="M-22.6,565.3c0,0-12.9-0.8-11.6-18.6c3-18.2,9.7-23.9,11.6-23.9c1.9,0,8,3.6,11.3,23.5      C-8.9,564.3-22.6,565.3-22.6,565.3z"/>
			</g>
			<g>
				<path class="st1" d="M-22.6,568.1L-22.6,568.1c-0.3,0-5.6-0.4-9.5-4.9c-3.3-3.8-4.7-9.3-4.2-16.4l0-0.1      c3.3-19.9,10.8-26.6,13.7-26.6c3.3,0,9.9,5.5,13.4,26.2c0.9,7-0.2,12.5-3.4,16.4C-16.5,567.6-22.3,568.1-22.6,568.1L-22.6,568.1      z M-33.7,547.1c-0.5,6.3,0.7,11.1,3.6,14.3c3,3.4,6.8,3.9,7.5,4c0.7-0.1,5-0.7,8-4.5c2.7-3.3,3.6-8.1,2.8-14.3      c-3.4-19.8-9.4-23.9-10.8-23.9C-23.7,522.9-30.5,528-33.7,547.1z"/>
			</g>
			<g>
				<g>
					<path class="st1" d="M-280.8,425.2c-1.2,0-2.3-0.8-2.6-2c-0.4-1.4,0.5-2.9,1.9-3.3c0.1,0,6.9-2,13.5-9.3       c8.9-9.8,13.6-24.7,13.6-43.1c0-1.5,1.2-2.7,2.7-2.7c1.5,0,2.7,1.2,2.7,2.7c0,25.2-8.3,39.5-15.3,47       c-7.7,8.3-15.5,10.5-15.8,10.6C-280.3,425.2-280.5,425.2-280.8,425.2z"/>
				</g>
				<g>
					<path class="st1" d="M-253.2,369.3c-8.3,0-14.7-7.1-15-7.4c-1-1.1-0.9-2.8,0.2-3.8c1.1-1,2.8-0.9,3.8,0.2       c0.1,0.1,5.7,6.2,11.9,5.5c3.8-0.4,7.4-3.3,10.5-8.7c0.8-1.3,2.4-1.7,3.7-1c1.3,0.8,1.7,2.4,1,3.7c-4.1,6.9-9,10.8-14.7,11.3       C-252.3,369.3-252.8,369.3-253.2,369.3z"/>
				</g>
				<g>
					<path class="st1" d="M-299.3,304c0,0,1.9,1.1,3.1-1.2c1.2-2.3-2.2-2.7-2.2-2.7s-30-10.4-47.3,10c-2.4,3.8,2.6,6.3,2.6,6.3       s2.8,2,6.1-2.2C-333.7,310.2-318.7,298.6-299.3,304z"/>
				</g>
				<g>
					<g>
						<path class="st1" d="M-315.4,333.8c0,0,17.3-7.8,22.2,7.7c5.1,17.1-27,29.2-31.9,11.7c-12.9-14,3.1-32.1,24.1-31.8        C-299.4,324.9-315.4,333.8-315.4,333.8z"/>
					</g>
					<g>
						<path class="st3" d="M-296.2,347.4c0,6.3-5,10.8-12.4,12.3c-7.1,0.9-15-1.3-15-10.2c0-9,8.1-15.4,15-15.4        C-301.7,334.1-294.6,339.2-296.2,347.4z"/>
					</g>
					<g>
						<path class="st4" d="M-296.2,347.4c0,6.3-5.6,11.3-12.4,11.3c-6.9,0-12.4-3-12.4-9.3c0-6.3,5.6-13.3,12.4-13.3        C-301.7,336.1-296.2,338.9-296.2,347.4z"/>
					</g>
					<g>
						<path class="st1" d="M-296.3,349.3c0,0-1-10.6-9.2-10.6c-6.5-0.2-7.2,4.4-7.2,4.4l5.4,3.2l-5.1,3.4c0,0,4.4,9.2,13.2,5.1        C-296.8,352.4-296.3,349.3-296.3,349.3z"/>
					</g>
					<g>
						
							<ellipse transform="matrix(0.9499 -0.3125 0.3125 0.9499 -123.1168 -76.7834)" class="st4" cx="-301.1" cy="345.7" rx="2.4" ry="3.3"/>
					</g>
				</g>
			</g>
		</g>
		<g class="st5">
			<g>
				<defs>
					<path id="SVGID_3_" d="M-170,257.2l5.4,16.2l70.4-2.4c67.1-3.8,116.7,19.7,139.1,60.7c-11.6-39.6-57.4-79-119.7-79H-170V257.2z       "/>
				</defs>
				<clipPath id="SVGID_4_">
					<use xlink:href="#SVGID_3_" style="overflow:visible;"/>
				</clipPath>
				<g style="clip-path:url(#SVGID_4_);">
					<image style="overflow:visible;" width="215" height="80" transform="matrix(1 0 0 1 -170 252)">
					</image>
				</g>
			</g>
		</g>
	</g>
	<g>
		<g>
			<path class="st6" d="M-198.8,387.9l-4.8,23.5c0,0-2.6,11.9,7.1,11.9c9.7,0,13.1,0,13.1,0s7.7,0.4,9.5-9.2l2.4-12.7h12     c0,0,23.3,1.8,37.6-17c-3.4,10-0.8,16.9,7.3,16.9c8.1,0,10.7,0,10.7,0s9.4,0.6,10.9-12.8l6.7-34.5h11.8c0,0,2.7-0.1,2.1,4     l-5.9,30.3c0,0-3.4,12.9,7.8,12.9c11.3,0,11.8,0,11.8,0s4.8,0.6,6.8-3.2l-2.6,14c0,0-3.1,11.1,7.5,11.1H-34c0,0,7.8,1.4,9.5-10.6     l2-11.7h9.2c40.7,0,48.8-26.6,48.8-43c0,0,2-29.3-35.8-29.3h-27.6c0,0-10.2-1.2-12.2,9.6l-1.6,8.6c0,0,1.3-18.3-29.7-18.3h-9.8     l2.1-11.1c0,0,3.1-11.1-7.9-11.1c-11.1,0-11.1,0-11.1,0s-8.4-0.4-10.2,9c-1.9,9.4-6.3,33.1-6.3,33.1s-1.8-19.7-37.3-19.7     c-11.6,10.3-5.7,24.4-5.7,24.4l6.8,0.3c0,0,8.5-0.3,6.5,8.3c-2.1,8.5-2.8,14.9-22,14.9l0.1-5.3     C-166.2,371.3-196.5,381.7-198.8,387.9z"/>
		</g>
		<g>
			<path class="st1" d="M-194.1,417.3h10.2c0,0,3.6,0.5,4.4-4.1c0.9-4.6,2.6-14.1,2.6-14.1s-0.3-3.6,5.6-3.6     c13.2,0.2,43,3.6,51.1-28.9c0.1-7.4,8-32.2-33-32.1c-6.8,5.6-3.1,12.7-3.1,12.7s21.1-1.8,18.2,14c-2.9,15.8-8.1,19.4-19.3,20.6     c-11.2,1.2-17.2,2.6-15.3-5.8c-13.7,4.4-19.1,8.5-19.1,8.5l-5.3,25.6C-197.1,410.1-199.5,417.3-194.1,417.3z"/>
		</g>
		<g>
			<path class="st1" d="M-102.9,318.2c0,0,0.1-5.7,3.9-5.7c3.8,0,12.2,0,12.2,0s3.2-0.2,1.5,6.6s-2.3,10.7-2.3,10.7     s-1.3,4.8,3.5,4.8c4.8,0,14.5,0,14.5,0c15.7,1.2,25,5.3,21.7,22.4l-6.7,34.4c0,0-0.4,4.2-4.2,4.2c-3.8,0-11.1,0-11.1,0     s-3.4,0.1-2.8-3.4c0.5-3.6,6.4-33,6.4-33s3.8-11.3-8-11.3c-11.7,0-10.3,0-10.3,0s-7-1.5-7.3,6.3l-7.4,36.4c0,0,0.5,5.1-5.7,5.1     c-6.2,0-9.2,0-9.2,0s-4.4,0.1-2.8-5.1L-102.9,318.2z"/>
		</g>
		<g>
			<path class="st1" d="M-28.6,334.4c0,0-4.1-0.9-5.5,5l-14.3,72.8c0,0-1.6,5.2,2.2,5.2c4.1,0,11.2,0,11.2,0s3.8-0.1,4.4-4.3     c0.7-4.2,2.3-12.9,2.3-12.9s0.2-4.8,6.2-4.8s11.2,0,11.2,0c24.6,0.4,39.2-15.2,40.6-35.7c0-21.8-18.1-25.4-28.2-25.4     S-28.6,334.4-28.6,334.4z"/>
		</g>
		<g>
			<path class="st6" d="M-12.9,353.7l-4.6,22.4h6.3c17.1,1,21.7-23.5,8.5-22.4H-12.9z"/>
		</g>
	</g>
	<g>
		<path class="st1" d="M122.1,296.9c0-8.7-9.9-11.7-16.3-12.7c0.4-2.6,0.4-5.7-1.1-8.4c-1.2-2.1-3.9-4.8-9.5-5.2c-0.1,0-0.2,0-0.3,0    c-14.7,0-26.9,12.5-30.8,17.1H22.2c-9.2-9.5-20-17.4-32.4-23.6c-20.4-10.1-44.5-15.3-71.6-15.3c0,0,0,0-0.1,0l-88,1.4    c-14.9-21.1-31.5-22.4-45.9-20.8c-3.8,0.4-9.2,2.4-15.3,5.2c-3.1-3-9.7-6.8-23.4-6.8c-18.8,0-41.2,23.3-46.3,28.7    c-31.4,4.7-54.3,15.8-68.2,33.3c-15.6,19.6-15.9,42.4-16,53.4c0,2.1,0,3.8-0.2,5c0,0.1,0,0.3,0,0.4c0,1.7,0.7,174.8,0.7,185.3    c0,0.7,0,1.3,0,2c-0.1,6.4-0.2,14.4,5.8,20.4c5,5.1,13.2,7.5,25.1,7.5c12.1,0,20.8-3,26-8.9c4.7-5.4,4.8-11.5,4.7-13.3l7.3-82    c1.1-13.2,5.5-22.3,13.1-27.2c6-3.8,13.6-4.9,21.5-4.5v81.8c-0.1,1.5-0.4,11.4,4.3,22c4.6,10.2,14.8,22.8,37.6,25.9    c0.9,1.3,2,2.6,3.2,3.8c10.1,10.3,27.8,15.5,52.5,15.5c23.8,0,40.8-5.7,50.5-17.1c9.4-10.9,8.4-23.2,8.2-25.5v-54.9    c3.6,0.7,9.2,1.5,16.5,1.9v39c0,1,0,9.6,5.6,18.5c5.2,8.3,16.4,18.5,40.2,20.2c10.6,9.9,27.7,14.9,51,14.9    c24.5,0,41.8-5.6,51.4-16.7c8.3-9.6,7.8-20,7.6-22V415.4c0-0.9-0.3-1.7-0.8-2.4c12.8-34.7,9.2-74.1-9.3-105h26.7    c3.3,4.6,12.6,15.4,28.6,16.2c0.1,0,0.1,0,0.2,0c3.2,0,12.9,0,15.5-6.5c1.1-2.8,0.4-5.8-0.9-8.2    C114.1,308.1,122.1,304.7,122.1,296.9z M97.6,279.8c0.5,0.8,0.4,2.4,0,3.9c-4.6,0-11.9,0.2-19.3,1.6c4.5-3.4,10.3-6.6,16.4-6.6    C95.7,278.8,97.2,279,97.6,279.8z M-254.4,236c7.9,0,12.5,1.4,15.1,2.7c-9.6,5-19.7,11-27,15.4c-7.5,0.1-14.7,0.4-21.5,1    C-278.6,246.6-264.9,236-254.4,236z M-272.8,510.3c0-0.1,0-0.2,0-0.3v-81.1c10.4,1.7,20.6,5.1,27.5,7.6c0,25.6,0,93.4,0,98.5    c0,0.2,0,0.4,0,0.7c0,2.5-0.1,7.4,1.7,13C-274.4,541.3-272.9,511.6-272.8,510.3z M-99.8,520.6c0,0,0-0.1,0-0.1v-38.9    c7.6-0.1,16.5-0.8,26.8-2.4v56.4c0,1.1,0,7.4,3.9,14.6C-99.9,544.7-99.8,521.6-99.8,520.6z M38.1,413.8c-0.8,1.9,0,4,1.7,5v116.8    c0,0.2,0,0.3,0,0.5c0,0.3,1,8.5-5.8,16.1c-7.9,9-23.6,13.7-45.2,13.7c-21.8,0-37.9-4.8-46.7-14c-7.4-7.7-7.2-15.9-7.2-16.2    c0-0.1,0-0.2,0-0.2v-70.1c0-2.2-1.8-4-4-4c-2.2,0-4,1.8-4,4v5.4c-27.3,4.6-45,1.8-51.4,0.4v-6.2c0-2.2-1.8-4-4-4c-2.2,0-4,1.8-4,4    v69.6c0,0.2,0,0.4,0,0.6c0,0.1,1.5,10.3-6.3,19.3c-8.1,9.4-23,14.2-44.4,14.2c-22.5,0-38.2-4.4-46.8-13c-7.4-7.5-7.3-16.3-7.2-20    c0-0.3,0-0.5,0-0.8c0-6.3,0-108.2,0-108.2l-8.1,0c0,0,0,0.4,0,1.1c-16.4-5.8-43.5-13.7-61.5-2.2c-9.9,6.3-15.5,17.5-16.8,33.3    l-7.4,82.3c0,0.3,0,0.5,0,0.8c0,0.2,0.4,4.1-2.8,7.6c-3.5,3.9-10.4,6-19.8,6c-9.5,0-16-1.7-19.3-5.1c-3.6-3.6-3.5-9.2-3.4-14.6    c0-0.7,0-1.4,0-2.1c0-10.3-0.7-178.4-0.7-185.1c0.1-1.4,0.1-3.2,0.2-5.4c0.2-19.6,0.8-68,78.5-79c0.1,0,0.3,0,0.4-0.1    c6.2-0.9,12.8-1.5,20-1.8c-0.4,1.1-0.3,2.4,0.4,3.5c1.2,1.9,3.7,2.4,5.6,1.2c2.1-1.3,4.8-3.1,7.9-5c0.1,0,0.1,0,0.2,0    c1.6,0,3-1,3.7-2.4c15.2-9.2,36.8-21.4,45.2-22.4c13.3-1.5,27.5,0,40.5,20.6c13,20.6,21.6,85.9,0.5,110.3    c-8.6,8.4-17.9,10.5-26.1,12.3c-11,2.5-22.4,5.1-22.4,24c0,2.2,1.8,4,4,4s4-1.8,4-4c0-12.5,5-13.6,16.1-16.1    c8.8-2,19.8-4.5,30.1-14.5c0.1-0.1,0.1-0.1,0.2-0.2c14.4-16.4,15.3-45.6,14.6-61.5c-0.9-20.8-5.4-41.3-11.8-54l83.3-1.3    c48.8,0,87.8,18,109.7,50.6C48.5,338.1,52.4,378.8,38.1,413.8z M93.4,316.1c-8.5-0.5-14.6-4.5-18.4-8.2c2,0.3,4.3,0.7,6.8,1    c6.5,0.8,12.8,1.2,16.7,1.4c1.6,1.7,2.7,3.7,2.7,4.5C100.9,314.9,99.2,316.1,93.4,316.1z M102.2,302.2c-1.2,0-9.6-0.3-18.3-1.3    c-9.4-1.1-14.4-2.4-17-3.5c10-5.6,28.2-6,35.2-5.6c0.1,0,0.1,0,0.2,0c5.5,0.5,11.9,2.4,11.9,5C114,299.6,107.6,301.6,102.2,302.2z    "/>
	</g>
	<g>
		<path class="st7" d="M56.5,295.8c-0.4,0.9-0.5,2-0.1,3c0.1,0.4,0.3,0.8,0.5,1.1H32.5c-1-1.4-2.1-2.8-3.2-4.1H56.5z"/>
	</g>
</g>
<g class="st8">
	<g>
		<defs>
			<path id="SVGID_5_" d="M-365.1,537.8l3.9-179.3c2.7-28.8,8.6-70.1,83-79.8c-1.7,7.1,6.9,4.9,6.9,4.9     c17.4-10.1,59.8-50.1,93.6-35.4c-15.1-16.4-39.9-9.3-39.9-9.3l-50.7,27l-3.1-2c-28.7,0.2-92.5,12-97.9,65.2     C-374.6,376.3-373,529.2-365.1,537.8z"/>
		</defs>
		<clipPath id="SVGID_6_">
			<use xlink:href="#SVGID_5_" style="overflow:visible;"/>
		</clipPath>
		<g style="clip-path:url(#SVGID_6_);">
			<image style="overflow:visible;" width="196" height="301" transform="matrix(1 0 0 1 -373 237)">
			</image>
		</g>
	</g>
</g>
</svg>