<?xml version="1.0" encoding="UTF-8" standalone="yes"?>
<svg xmlns="http://www.w3.org/2000/svg" xmlns:xlink="http://www.w3.org/1999/xlink" width="80px" height="80px" viewBox="0 0 60 60" version="1.1">
  <g id="surface1">
    <rect x="0" y="0" width="60" height="60" style="fill:rgb(96.862745%,87.45098%,11.764706%);fill-opacity:1;stroke:none;"/>
    <path style=" stroke:none;fill-rule:nonzero;fill:rgb(0%,0%,0%);fill-opacity:1;" d="M 40.304688 46.875 C 41.511719 48.847656 43.085938 50.300781 45.867188 50.300781 C 48.203125 50.300781 49.695312 49.132812 49.695312 47.519531 C 49.695312 45.585938 48.160156 44.898438 45.589844 43.773438 L 44.179688 43.171875 C 40.113281 41.4375 37.410156 39.265625 37.410156 34.675781 C 37.410156 30.445312 40.632812 27.226562 45.667969 27.226562 C 49.25 27.226562 51.828125 28.476562 53.6875 31.742188 L 49.296875 34.5625 C 48.328125 32.828125 47.285156 32.144531 45.667969 32.144531 C 44.015625 32.144531 42.96875 33.191406 42.96875 34.5625 C 42.96875 36.253906 44.015625 36.9375 46.433594 37.984375 L 47.84375 38.589844 C 52.636719 40.644531 55.339844 42.738281 55.339844 47.445312 C 55.339844 52.523438 51.351562 55.304688 45.996094 55.304688 C 40.761719 55.304688 37.378906 52.808594 35.722656 49.539062 Z M 20.386719 47.363281 C 21.273438 48.933594 22.078125 50.265625 24.015625 50.265625 C 25.867188 50.265625 27.039062 49.539062 27.039062 46.722656 L 27.039062 27.550781 L 32.675781 27.550781 L 32.675781 46.796875 C 32.675781 52.636719 29.253906 55.292969 24.257812 55.292969 C 19.742188 55.292969 17.128906 52.957031 15.796875 50.140625 Z M 20.386719 47.363281 "/>
  </g>
</svg>